<?xml version="1.0" standalone="no"?>
<!DOCTYPE svg PUBLIC "-//W3C//DTD SVG 1.1//EN" "http://www.w3.org/Graphics/SVG/1.1/DTD/svg11.dtd" >
<svg xmlns="http://www.w3.org/2000/svg">
  <metadata>Created by iconfont</metadata>
  <defs>
  <font id="iconfont" horiz-adv-x="1024">
    <font-face
      font-family="iconfont"
      font-weight="400"
      font-stretch="normal"
      units-per-em="1024"
      ascent="896"
      descent="-128"
    />
      <missing-glyph />
      
      <glyph glyph-name="jisuanqi-1" unicode="&#59802;" d="M885.344 842.656c39.52 0 71.872-30.72 74.496-69.536L960 768v-768c0-39.52-30.72-71.872-69.536-74.496l-5.12-0.16H138.656a74.688 74.688 0 0 0-74.496 69.536L64 0V768c0 39.52 30.72 71.872 69.568 74.496l5.12 0.16h746.656z m10.656-256H128V0c0-5.152 3.648-9.44 8.512-10.464l2.144-0.192h746.688a10.656 10.656 0 0 1 10.432 8.512L896 0V586.656zM263.104 247.552a88 88 0 1 0 0-176 88 88 0 0 0 0 176z m248.896 0a88 88 0 1 0 0-176 88 88 0 0 0 0 176z m248.896 0a88 88 0 1 0 0-176 88 88 0 0 0 0 176z m-497.792-64a24 24 0 1 1 0-48 24 24 0 0 1 0 48z m248.896 0a24 24 0 1 1 0-48 24 24 0 0 1 0 48z m248.896 0a24 24 0 1 1 0-48 24 24 0 0 1 0 48z m-497.792 320a88 88 0 1 0 0-176 88 88 0 0 0 0 176z m248.896 0a88 88 0 1 0 0-176 88 88 0 0 0 0 176z m248.896 0a88 88 0 1 0 0-176 88 88 0 0 0 0 176z m-497.792-64a24 24 0 1 1 0-48 24 24 0 0 1 0 48z m248.896 0a24 24 0 1 1 0-48 24 24 0 0 1 0 48z m248.896 0a24 24 0 1 1 0-48 24 24 0 0 1 0 48z m124.448 339.104H138.688a10.656 10.656 0 0 1-10.464-8.512L128 768v-117.344h768V768a10.656 10.656 0 0 1-10.656 10.656z"  horiz-adv-x="1024" />
      
      <glyph glyph-name="zhenduan-1" unicode="&#59801;" d="M469.312 866.208c242.752 0 439.52-196.8 439.52-439.52 0-104.096-36.16-199.712-96.64-275.008l167.968-167.936a48 48 0 0 0-64.256-71.2l-3.648 3.296-167.936 168a437.664 437.664 0 0 0-275.008-96.672c-182.208 0-338.528 110.88-405.12 268.832h106.944a343.392 343.392 0 0 1 298.176-172.832c189.728 0 343.52 153.792 343.52 343.52 0 189.728-153.792 343.52-343.52 343.52a343.552 343.552 0 0 1-309.44-194.176H55.808C116.928 745.216 279.04 866.176 469.312 866.176z m-112.128-295.04l80.352-162.688 10.4 15.52h234.88v-80h-192.128l-63.552-95.104-100.736 203.936-157.856-108.832H45.792v80h97.792l213.6 147.2z"  horiz-adv-x="1024" />
      
      <glyph glyph-name="kaiguan-1" unicode="&#59799;" d="M321.728 679.36C161.728 679.36 32 547.168 32 384c0-163.136 129.696-295.36 289.728-295.36h380.544c160 0 289.728 132.224 289.728 295.36 0 163.136-129.696 295.36-289.728 295.36H321.728z m5.664-36.896a258.464 258.464 0 1 0 0-516.928 258.464 258.464 0 0 0 0 516.928z"  horiz-adv-x="1024" />
      
      <glyph glyph-name="kaiguan-2" unicode="&#59800;" d="M702.272 679.36c160 0 289.728-132.224 289.728-295.36 0-163.136-129.696-295.36-289.728-295.36H321.728C161.728 88.64 32 220.832 32 384c0 163.136 129.696 295.36 289.728 295.36h380.544z m-5.664-36.896a258.464 258.464 0 1 1 0-516.928 258.464 258.464 0 0 1 0 516.928z"  horiz-adv-x="1024" />
      
      <glyph glyph-name="diannao-1" unicode="&#59795;" d="M938.656 784a32 32 0 0 0 31.808-28.256l0.192-3.744v-554.656a32 32 0 0 0-28.256-31.808l-3.744-0.192H544v-96c0-3.744-0.64-7.36-1.824-10.688H768a32 32 0 0 0 3.744-63.776l-3.744-0.224H256a32 32 0 0 0-3.744 63.808L256 58.656h225.824a31.808 31.808 0 0 0-1.6 6.944L480 69.344v96H85.344a32 32 0 0 0-31.808 28.256l-0.192 3.744V752a32 32 0 0 0 28.256 31.776l3.744 0.224h853.312z m-32-64H117.312v-490.656h789.344V720z m-565.312-256a32 32 0 0 0 31.776-28.256l0.224-3.744v-85.344a32 32 0 0 0-63.808-3.712l-0.192 3.712V432a32 32 0 0 0 32 32zM512 549.344a32 32 0 0 0 31.776-28.288l0.224-3.712v-170.688a32 32 0 0 0-63.776-3.712L480 346.656v170.688a32 32 0 0 0 32 32z m170.656 85.312a32 32 0 0 0 31.808-28.256l0.192-3.744v-256a32 32 0 0 0-63.776-3.712l-0.224 3.712v256a32 32 0 0 0 32 32z"  horiz-adv-x="1024" />
      
      <glyph glyph-name="diannao-2" unicode="&#59794;" d="M938.656 784a32 32 0 0 0 31.808-28.256l0.192-3.744v-554.656a32 32 0 0 0-28.256-31.808l-3.744-0.192H544v-96c0-3.744-0.64-7.36-1.824-10.688H768a32 32 0 0 0 3.744-63.776l-3.744-0.224H256a32 32 0 0 0-3.744 63.808L256 58.656h225.824a31.808 31.808 0 0 0-1.6 6.944L480 69.344v96H85.344a32 32 0 0 0-31.808 28.256l-0.192 3.744V752a32 32 0 0 0 28.256 31.776l3.744 0.224h853.312z m-597.312-320a32 32 0 0 1-32-32v-85.344l0.192-3.712a32 32 0 0 1 63.808 3.712V432l-0.224 3.744a32 32 0 0 1-31.776 28.256zM512 549.344a32 32 0 0 1-32-32v-170.688l0.224-3.712A32 32 0 0 1 544 346.656v170.688l-0.224 3.712a32 32 0 0 1-31.776 28.288z m170.656 85.312a32 32 0 0 1-32-32v-256l0.224-3.712a32 32 0 0 1 63.776 3.712v256l-0.192 3.744a32 32 0 0 1-31.808 28.256z"  horiz-adv-x="1024" />
      
      <glyph glyph-name="shandian-1" unicode="&#59793;" d="M640 842.656a32 32 0 0 0 31.04-39.744l-54.08-216.224H832c26.72 0 41.184-30.496 25.728-51.072l-2.272-2.72L300.768-64.448c-22.336-24.064-62.08-2.88-54.592 29.12L322.24 288H192a32 32 0 0 0-31.68 36.48l0.704 3.584 128 490.688A32 32 0 0 0 320 842.656z m-40.96-63.968h-254.336L233.408 352h129.28a32 32 0 0 0 31.776-35.584l-0.64-3.744-57.664-244.896 422.464 454.912H576a32 32 0 0 0-31.712 36.16l0.64 3.584 54.08 216.256z m-164.608-86.304a32 32 0 0 0 24-35.136l-0.736-3.68-42.656-170.656a32 32 0 0 0-62.784 11.84l0.704 3.68 42.656 170.656a32 32 0 0 0 38.816 23.296z"  horiz-adv-x="1024" />
      
      <glyph glyph-name="shandian-2" unicode="&#59798;" d="M640 842.656a32 32 0 0 0 31.04-39.744l-54.08-216.224H832c26.688 0 41.152-30.496 25.728-51.072l-2.304-2.72L300.8-64.448c-22.368-24.064-62.144-2.88-54.592 29.12L322.208 288H192a32 32 0 0 0-31.68 36.48l0.736 3.584 128 490.688a32 32 0 0 0 30.944 23.904z m-205.6-150.272a32 32 0 0 1-38.816-23.296l-42.656-170.656-0.704-3.68a32 32 0 0 1 62.784-11.84l42.688 170.656 0.704 3.68a32 32 0 0 1-24 35.136z"  horiz-adv-x="1024" />
      
      <glyph glyph-name="qingchu-1" unicode="&#59797;" d="M599.584 864a32 32 0 0 0 31.776-28.256l0.224-3.744-0.032-175.232H928a32 32 0 0 0 31.168-24.672l0.64-3.616 0.192-3.744v-207.232a32 32 0 0 0-28.256-31.808l-3.744-0.192h-33.696v-436.544a32 32 0 0 0-28.256-31.776l-3.744-0.224H161.696a32 32 0 0 0-31.808 28.256l-0.192 3.744-0.032 436.544H96a32 32 0 0 0-31.776 28.256L64 417.504V624.736a32 32 0 0 0 28.256 31.808L96 656.736l296.416 0.032V832a32 32 0 0 0 24.64 31.168l3.648 0.64 3.712 0.192h175.168z m230.72-480.704H193.664v-402.336l111.168 0.032v125.632a32 32 0 0 0 63.808 3.712l0.192-3.712v-125.632H480v126.08a32 32 0 0 0 63.776 3.712l0.224-3.744v-126.048h111.136v125.632a32 32 0 0 0 63.808 3.712l0.224-3.712-0.032-125.632 111.168-0.032V383.296zM567.552 800h-111.136v-175.264a32 32 0 0 0-24.64-31.136l-3.616-0.64-3.744-0.224L128 592.768v-143.264h768V592.768h-296.416a32 32 0 0 0-31.168 24.64l-0.64 3.616-0.192 3.712L567.552 800z"  horiz-adv-x="1024" />
      
      <glyph glyph-name="qingchu-2" unicode="&#59796;" d="M599.584 864a32 32 0 0 0 31.776-28.256l0.224-3.744-0.032-175.232H928a32 32 0 0 0 31.168-24.672l0.64-3.616 0.192-3.744v-207.232a32 32 0 0 0-28.256-31.808l-3.744-0.192h-33.696v-436.544a32 32 0 0 0-28.256-31.776l-3.744-0.224H161.696a32 32 0 0 0-31.808 28.256l-0.192 3.744-0.032 436.544H96a32 32 0 0 0-31.776 28.256L64 417.504V624.736a32 32 0 0 0 28.256 31.808L96 656.736l296.416 0.032V832a32 32 0 0 0 24.64 31.168l3.648 0.64 3.712 0.192h175.168z m-262.72-725.376a32 32 0 0 1-32-32l-0.064-125.664h64l0.032 125.664-0.192 3.712a32 32 0 0 1-31.808 28.288zM512 139.04a32 32 0 0 1-32-32v-126.08h64v126.08l-0.224 3.744a32 32 0 0 1-31.776 28.256z m175.168-0.416a32 32 0 0 1-32-32v-125.664h64v125.664l-0.224 3.712a32 32 0 0 1-31.776 28.288zM567.552 800h-111.136v-175.264a32 32 0 0 0-24.64-31.136l-3.616-0.64-3.744-0.224L128 592.768v-143.264h768V592.768h-296.416a32 32 0 0 0-31.168 24.64l-0.64 3.616-0.192 3.712L567.552 800z"  horiz-adv-x="1024" />
      
      <glyph glyph-name="laba-1" unicode="&#59791;" d="M512 800c-75.712 0-145.696-40.16-209.184-105.888a596 596 0 0 1-57.6-69.824l-7.04-10.208-4.224-6.304H128a74.656 74.656 0 0 1-74.656-74.688v-294.976l0.16-5.12A74.656 74.656 0 0 1 128 163.424l105.792 0.032 7.648-11.52 3.648-5.312c16.8-24.16 36.064-48.32 57.568-70.944C366.08 8.864 436.16-32 512-32a32 32 0 0 1 32 32V768a32 32 0 0 1-32 32z m-32-67.52v-696.832l-7.232 1.728c-41.888 11.36-83.68 40.224-123.712 82.368a540.256 540.256 0 0 0-51.392 63.424l-8.896 13.12a297.696 297.696 0 0 0-9.248 14.944 32 32 0 0 1-27.84 16.192H128a10.656 10.656 0 0 0-10.656 10.688v294.976c0 5.92 4.768 10.688 10.656 10.688h123.712a32 32 0 0 1 27.712 16l6.816 10.976a532.736 532.736 0 0 0 62.656 78.912c40 41.472 81.824 69.856 123.776 81.024L480 732.48z m272.96 41.856A458.336 458.336 0 0 0 970.688 384c0-163.392-86.176-311.904-223.904-394.112a32 32 0 1 0-32.8 54.976A394.4 394.4 0 0 1 906.656 384c0 138.4-71.776 264.416-187.328 335.904a32 32 0 1 0 33.664 54.4zM704 599.872a286.08 286.08 0 0 0 40.448-44.64A289.472 289.472 0 0 0 800 384a289.504 289.504 0 0 0-54.656-169.984 286.144 286.144 0 0 0-41.376-45.888 32 32 0 0 0-42.624 47.744c11.936 10.656 22.72 22.592 32.096 35.616A225.536 225.536 0 0 1 736 384a225.472 225.472 0 0 1-43.232 133.472 222.08 222.08 0 0 1-31.424 34.656A32 32 0 0 0 704 599.872z"  horiz-adv-x="1024" />
      
      <glyph glyph-name="laba-2" unicode="&#59790;" d="M512 800c-75.712 0-145.696-40.16-209.184-105.888a596 596 0 0 1-57.6-69.824l-7.04-10.208-4.224-6.304H128a74.656 74.656 0 0 1-74.656-74.688v-294.976l0.16-5.12A74.656 74.656 0 0 1 128 163.424l105.792 0.032 7.648-11.52 3.648-5.312c16.8-24.16 36.064-48.32 57.568-70.944C366.08 8.864 436.16-32 512-32a32 32 0 0 1 32 32V768a32 32 0 0 1-32 32z m240.96-25.664A458.336 458.336 0 0 0 970.688 384c0-163.392-86.176-311.904-223.904-394.112a32 32 0 1 0-32.8 54.976A394.4 394.4 0 0 1 906.656 384c0 138.4-71.776 264.416-187.328 335.904a32 32 0 1 0 33.664 54.4zM704 599.872a286.08 286.08 0 0 0 40.448-44.64A289.472 289.472 0 0 0 800 384a289.504 289.504 0 0 0-54.656-169.984 286.144 286.144 0 0 0-41.376-45.888 32 32 0 0 0-42.624 47.744c11.936 10.656 22.72 22.592 32.096 35.616A225.536 225.536 0 0 1 736 384a225.472 225.472 0 0 1-43.232 133.472 222.08 222.08 0 0 1-31.424 34.656A32 32 0 0 0 704 599.872z"  horiz-adv-x="1024" />
      
      <glyph glyph-name="laba-3" unicode="&#59789;" d="M597.344 800C521.6 800 451.616 759.84 388.16 694.112a596 596 0 0 1-57.6-69.824l-7.04-10.208-4.256-6.304h-105.92a74.656 74.656 0 0 1-74.688-74.688v-294.976l0.192-5.12a74.656 74.656 0 0 1 74.496-69.568l105.76 0.032 7.68-11.52 3.648-5.312c16.8-24.16 36.032-48.32 57.536-70.944C451.456 8.864 521.472-32 597.344-32a32 32 0 0 1 32 32V768a32 32 0 0 1-32 32z m-32-67.52v-696.832l-7.232 1.728c-41.888 11.36-83.68 40.224-123.712 82.368a540.256 540.256 0 0 0-51.424 63.424l-8.864 13.12a297.696 297.696 0 0 0-9.28 14.944 32 32 0 0 1-27.808 16.192H213.344a10.656 10.656 0 0 0-10.688 10.688v294.976c0 5.92 4.8 10.688 10.688 10.688h123.68a32 32 0 0 1 27.712 16l6.816 10.976a532.736 532.736 0 0 0 62.656 78.912c40.032 41.472 81.856 69.856 123.808 81.024l7.296 1.792z m178.784-135.168a32 32 0 0 0 45.184 2.56 286.08 286.08 0 0 0 40.448-44.64A289.472 289.472 0 0 0 885.344 384a289.504 289.504 0 0 0-54.656-169.984 286.144 286.144 0 0 0-41.376-45.888 32 32 0 0 0-42.624 47.744c11.904 10.656 22.688 22.592 32.096 35.616A225.536 225.536 0 0 1 821.344 384a225.472 225.472 0 0 1-43.264 133.472 222.08 222.08 0 0 1-31.392 34.656 32 32 0 0 0-2.56 45.184z"  horiz-adv-x="1024" />
      
      <glyph glyph-name="laba-4" unicode="&#59788;" d="M597.344 800C521.6 800 451.616 759.84 388.16 694.112a596 596 0 0 1-57.6-69.824l-7.04-10.208-4.256-6.304h-105.92a74.656 74.656 0 0 1-74.688-74.688v-294.976l0.192-5.12a74.656 74.656 0 0 1 74.496-69.568l105.76 0.032 7.68-11.52 3.648-5.312c16.8-24.16 36.032-48.32 57.536-70.944C451.456 8.864 521.472-32 597.344-32a32 32 0 0 1 32 32V768a32 32 0 0 1-32 32z m146.784-202.688a32 32 0 0 0 45.184 2.56 286.08 286.08 0 0 0 40.448-44.64A289.472 289.472 0 0 0 885.344 384a289.504 289.504 0 0 0-54.656-169.984 286.144 286.144 0 0 0-41.376-45.888 32 32 0 0 0-42.624 47.744c11.904 10.656 22.688 22.592 32.096 35.616A225.536 225.536 0 0 1 821.344 384a225.472 225.472 0 0 1-43.264 133.472 222.08 222.08 0 0 1-31.392 34.656 32 32 0 0 0-2.56 45.184z"  horiz-adv-x="1024" />
      
      <glyph glyph-name="laba-5" unicode="&#59787;" d="M735.808 729.024l0.192-3.68v-682.688a32 32 0 0 0-40.096-30.944l-3.52 1.12-378.4 147.2L85.344 160a32 32 0 0 0-31.808 28.256L53.344 192V576a32 32 0 0 0 32 32h228.64L692.416 755.2a32 32 0 0 0 43.392-26.144zM672 678.56l-320-124.416v-340.224l320-124.448V678.56zM288 544.032H117.312v-320H288v320z m608 21.312a32 32 0 0 0 3.744-63.808l-3.744-0.192h-42.656a32 32 0 0 0-3.744 63.776l3.744 0.224H896z m42.656-170.688a32 32 0 0 0 3.744-63.776l-3.744-0.224H832a32 32 0 0 0-3.744 63.808l3.744 0.192h106.656zM896 224a32 32 0 0 0 3.744-63.776L896 160h-42.656a32 32 0 0 0-3.744 63.776l3.744 0.224H896z"  horiz-adv-x="1024" />
      
      <glyph glyph-name="laba-6" unicode="&#59792;" d="M756.224 705.152l0.192-3.68v-682.656a32 32 0 0 0-40.096-30.976l-3.52 1.152-378.4 147.168H105.76a32 32 0 0 0-31.808 28.256l-0.192 3.712v384a32 32 0 0 0 28.256 31.808l3.744 0.192 228.64 0.032 378.432 147.136a32 32 0 0 0 43.392-26.144z m-383.808-174.848l-64-10.144v-320l64-10.016v340.16z m544 11.168a32 32 0 0 0 3.744-63.776l-3.744-0.224h-42.656a32 32 0 0 0-3.744 63.776l3.744 0.224h42.656z m42.656-170.656a32 32 0 0 0 3.744-63.808l-3.744-0.192h-106.656a32 32 0 0 0-3.744 63.776l3.744 0.224h106.656z m-42.656-170.688a32 32 0 0 0 3.744-63.776l-3.744-0.224h-42.656a32 32 0 0 0-3.744 63.808l3.744 0.192h42.656z"  horiz-adv-x="1024" />
      
      <glyph glyph-name="laba-7" unicode="&#59785;" d="M718.272 488.512l3.008-2.656 67.872-67.84 67.904 67.84a32 32 0 0 0 47.904-42.24l-2.656-3.008-67.904-67.84 67.904-67.936a32 32 0 0 0-42.24-47.904l-3.008 2.656-67.904 67.904-67.84-67.904a32 32 0 0 0-47.936 42.24l2.656 3.008 67.872 67.904-67.872 67.872a32 32 0 0 0 42.24 47.904zM522.656 800c-75.712 0-145.696-40.16-209.152-105.888a596 596 0 0 1-57.6-69.824l-7.04-10.208-4.256-6.304h-105.92A74.656 74.656 0 0 1 64 533.088v-294.976l0.16-5.12a74.656 74.656 0 0 1 74.496-69.568l105.792 0.032 7.68-11.52 3.648-5.312c16.768-24.16 36.032-48.32 57.536-70.944C376.768 8.864 446.816-32 522.656-32a32 32 0 0 1 32 32V768a32 32 0 0 1-32 32z m-32-67.52v-696.832l-7.232 1.728c-41.856 11.36-83.648 40.224-123.712 82.368a540.256 540.256 0 0 0-51.392 63.424l-8.896 13.12a297.696 297.696 0 0 0-9.216 14.944 32 32 0 0 1-27.84 16.192H138.656A10.656 10.656 0 0 0 128 238.112v294.976c0 5.92 4.8 10.688 10.656 10.688H262.4a32 32 0 0 1 27.712 16l6.816 10.976a532.736 532.736 0 0 0 62.656 78.912c40.032 41.472 81.856 69.856 123.808 81.024l7.264 1.792z"  horiz-adv-x="1024" />
      
      <glyph glyph-name="laba-8" unicode="&#59784;" d="M718.272 488.512l3.008-2.656 67.872-67.84 67.904 67.84a32 32 0 0 0 47.904-42.24l-2.656-3.008-67.872-67.84 67.872-67.936a32 32 0 0 0-42.24-47.904l-3.008 2.656-67.904 67.904-67.84-67.904a32 32 0 0 0-47.936 42.24l2.656 3.008 67.84 67.904-67.84 67.872a32 32 0 0 0 42.24 47.904zM522.656 800c-75.712 0-145.696-40.16-209.152-105.888a596 596 0 0 1-57.6-69.824l-7.04-10.208-4.256-6.304h-105.92A74.656 74.656 0 0 1 64 533.088v-294.976l0.16-5.12a74.656 74.656 0 0 1 74.496-69.568l105.792 0.032 7.68-11.52 3.648-5.312c16.768-24.16 36.032-48.32 57.536-70.944C376.768 8.864 446.816-32 522.656-32a32 32 0 0 1 32 32V768a32 32 0 0 1-32 32z"  horiz-adv-x="1024" />
      
      <glyph glyph-name="laba-9" unicode="&#59783;" d="M512 800c-75.712 0-145.696-40.16-209.184-105.888a596 596 0 0 1-57.6-69.824l-7.04-10.208-4.224-6.304H128a74.656 74.656 0 0 1-74.656-74.688v-294.976l0.16-5.12A74.656 74.656 0 0 1 128 163.424l105.792 0.032 7.648-11.52 3.648-5.312c16.8-24.16 36.064-48.32 57.568-70.944C366.08 8.864 436.16-32 512-32a32 32 0 0 1 32 32V768a32 32 0 0 1-32 32z m-32-67.52v-696.832l-7.232 1.728c-41.888 11.36-83.68 40.224-123.712 82.368a540.256 540.256 0 0 0-51.392 63.424l-8.896 13.12a297.696 297.696 0 0 0-9.248 14.944 32 32 0 0 1-27.84 16.192H128a10.656 10.656 0 0 0-10.656 10.688v294.976c0 5.92 4.768 10.688 10.656 10.688h123.712a32 32 0 0 1 27.712 16l2.816 4.704a532.736 532.736 0 0 0 66.624 85.152c40.064 41.504 81.856 69.888 123.84 81.056L480 732.48zM810.656 544a32 32 0 0 0 31.808-28.256l0.192-3.744v-96h96a32 32 0 0 0 3.744-63.776l-3.744-0.224h-96v-96a32 32 0 0 0-63.776-3.744L778.656 256v96h-96a32 32 0 0 0-3.712 63.776l3.712 0.224h96v96a32 32 0 0 0 32 32z"  horiz-adv-x="1024" />
      
      <glyph glyph-name="laba-10" unicode="&#59782;" d="M512 800c-75.712 0-145.696-40.16-209.184-105.888a596 596 0 0 1-57.6-69.824l-7.04-10.208-4.224-6.304H128a74.656 74.656 0 0 1-74.656-74.688v-294.976l0.16-5.12A74.656 74.656 0 0 1 128 163.424l105.792 0.032 7.648-11.52 3.648-5.312c16.8-24.16 36.064-48.32 57.568-70.944C366.08 8.864 436.16-32 512-32a32 32 0 0 1 32 32V768a32 32 0 0 1-32 32z m298.656-256a32 32 0 0 0 31.808-28.256l0.192-3.744v-96h96a32 32 0 0 0 3.744-63.776l-3.744-0.224h-96v-96a32 32 0 0 0-63.776-3.744L778.656 256v96h-96a32 32 0 0 0-3.712 63.776l3.712 0.224h96v96a32 32 0 0 0 32 32z"  horiz-adv-x="1024" />
      
      <glyph glyph-name="laba-11" unicode="&#59781;" d="M512 800c-75.712 0-145.696-40.16-209.184-105.888a596 596 0 0 1-57.6-69.824l-7.04-10.208-4.224-6.304H128a74.656 74.656 0 0 1-74.656-74.688v-294.976l0.16-5.12A74.656 74.656 0 0 1 128 163.424l105.792 0.032 7.648-11.52 3.648-5.312c16.8-24.16 36.064-48.32 57.568-70.944C366.08 8.864 436.16-32 512-32a32 32 0 0 1 32 32V768a32 32 0 0 1-32 32z m-32-67.52v-696.832l-7.232 1.728c-41.888 11.36-83.68 40.224-123.712 82.368a540.256 540.256 0 0 0-51.392 63.424l-6.208 9.088a333.44 333.44 0 0 0-11.936 18.976 32 32 0 0 1-27.84 16.192H128a10.656 10.656 0 0 0-10.656 10.688v294.976c0 5.92 4.768 10.688 10.656 10.688h123.712a32 32 0 0 1 27.712 16l4.672 7.68a532.736 532.736 0 0 0 64.768 82.24c40.064 41.44 81.856 69.824 123.84 80.992l7.264 1.792zM938.624 416a32 32 0 0 0 3.744-63.776l-3.744-0.224h-256a32 32 0 0 0-3.712 63.776l3.712 0.224h256z"  horiz-adv-x="1024" />
      
      <glyph glyph-name="laba-12" unicode="&#59786;" d="M512 800c-75.712 0-145.696-40.16-209.184-105.888a596 596 0 0 1-57.6-69.824l-7.04-10.208-4.224-6.304H128a74.656 74.656 0 0 1-74.656-74.688v-294.976l0.16-5.12A74.656 74.656 0 0 1 128 163.424l105.792 0.032 7.648-11.52 3.648-5.312c16.8-24.16 36.064-48.32 57.568-70.944C366.08 8.864 436.16-32 512-32a32 32 0 0 1 32 32V768a32 32 0 0 1-32 32z m426.656-384a32 32 0 0 0 3.744-63.776l-3.744-0.224h-256a32 32 0 0 0-3.712 63.776l3.712 0.224h256z"  horiz-adv-x="1024" />
      
      <glyph glyph-name="bofang-1" unicode="&#59779;" d="M512 842.656c253.312 0 458.656-205.344 458.656-458.656S765.312-74.656 512-74.656 53.344 130.688 53.344 384 258.688 842.656 512 842.656z m0-64C294.016 778.656 117.344 601.984 117.344 384S294.016-10.656 512-10.656 906.656 166.016 906.656 384 729.984 778.656 512 778.656z m106.656-149.312a32 32 0 0 0 32-32v-426.688a32 32 0 0 0-32-32c-46.528 0-88.32 24.64-125.696 64.384-14.112 15.04-25.664 29.952-34.4 42.88l-0.864 1.344h-71.552a55.552 55.552 0 0 0-55.264 50.88l-0.224 4.8v163.904c0 30.688 24.768 55.68 55.488 55.68l71.68 0.032 5.472 7.776c6.464 8.896 14.144 18.528 23.008 28.32l6.848 7.392c37.344 39.072 79.136 63.296 125.504 63.296z m-32-71.712l-1.536-0.704c-15.2-7.36-30.592-19.296-45.696-35.104a281.28 281.28 0 0 1-31.744-40.096l-6.464-10.24a32 32 0 0 0-25.728-12.96l-80.832 0.032v-147.296h80.832a32 32 0 0 0 25.856-13.12l2.048-3.2c0.896-1.6 2.368-4.032 4.416-7.232l4.864-7.296c7.904-11.456 16.96-22.944 26.912-33.536 15.136-16.064 30.528-28.224 45.664-35.68l1.408-0.64V557.632z"  horiz-adv-x="1024" />
      
      <glyph glyph-name="bofang-2" unicode="&#59778;" d="M512 842.656c253.312 0 458.656-205.344 458.656-458.656S765.312-74.656 512-74.656 53.344 130.688 53.344 384 258.688 842.656 512 842.656z m106.656-213.312c-46.4 0-88.16-24.224-125.504-63.296l-6.848-7.36c-8.864-9.824-16.544-19.456-23.008-28.352l-5.44-7.776h-71.712c-30.72 0-55.488-25.024-55.488-55.712v-163.904l0.224-4.8c2.4-28.48 26.176-50.88 55.264-50.88h71.552l0.864-1.344c8.736-12.928 20.288-27.84 34.4-42.88 37.376-39.744 79.168-64.384 125.696-64.384a32 32 0 0 1 32 32V597.344a32 32 0 0 1-32 32z m-32-71.712V210.56l-1.408 0.64c-15.136 7.456-30.528 19.616-45.664 35.68a285.504 285.504 0 0 0-26.88 33.536l-4.896 7.296c-2.048 3.2-3.52 5.664-4.416 7.2l-2.048 3.2a32 32 0 0 1-25.856 13.12l-80.832 0.032V458.56h80.832a32 32 0 0 1 25.728 12.928l6.464 10.24a289.28 289.28 0 0 0 31.744 40.096c15.104 15.808 30.496 27.744 45.696 35.104l1.536 0.704z"  horiz-adv-x="1024" />
      
      <glyph glyph-name="bofang-3" unicode="&#59777;" d="M512 842.656c253.312 0 458.656-205.344 458.656-458.656S765.312-74.656 512-74.656 53.344 130.688 53.344 384 258.688 842.656 512 842.656z m0-64C294.016 778.656 117.344 601.984 117.344 384S294.016-10.656 512-10.656 906.656 166.016 906.656 384 729.984 778.656 512 778.656z m-117.344-246.848a32 32 0 0 0 48 27.712l256-147.808a32 32 0 0 0 0-55.424l-256-147.808a32 32 0 0 0-48 27.712z m64-55.424v-184.736l159.936 92.384-159.968 92.352z"  horiz-adv-x="1024" />
      
      <glyph glyph-name="bofang-4" unicode="&#59776;" d="M512 842.656c253.312 0 458.656-205.344 458.656-458.656S765.312-74.656 512-74.656 53.344 130.688 53.344 384 258.688 842.656 512 842.656z m-117.344-310.848v-295.616a32 32 0 0 1 48-27.712l256 147.808a32 32 0 0 1 0 55.424l-256 147.808a32 32 0 0 1-48-27.712z m64-55.424l159.936-92.352-159.968-92.384v184.736z"  horiz-adv-x="1024" />
      
      <glyph glyph-name="bofang-5" unicode="&#59775;" d="M512 842.656c253.312 0 458.656-205.344 458.656-458.656S765.312-74.656 512-74.656 53.344 130.688 53.344 384 258.688 842.656 512 842.656z m0-64C294.016 778.656 117.344 601.984 117.344 384S294.016-10.656 512-10.656 906.656 166.016 906.656 384 729.984 778.656 512 778.656zM405.344 544a32 32 0 0 0 31.776-28.256l0.224-3.744v-256a32 32 0 0 0-63.808-3.744L373.344 256v256a32 32 0 0 0 32 32z m213.312 0a32 32 0 0 0 31.808-28.256l0.192-3.744v-256a32 32 0 0 0-63.776-3.744L586.656 256v256a32 32 0 0 0 32 32z"  horiz-adv-x="1024" />
      
      <glyph glyph-name="bofang-6" unicode="&#59780;" d="M512 842.656c253.312 0 458.656-205.344 458.656-458.656S765.312-74.656 512-74.656 53.344 130.688 53.344 384 258.688 842.656 512 842.656zM405.344 544a32 32 0 0 1-32-32v-256l0.192-3.744A32 32 0 0 1 437.344 256v256l-0.224 3.744a32 32 0 0 1-31.776 28.256z m213.312 0a32 32 0 0 1-32-32v-256l0.224-3.744A32 32 0 0 1 650.656 256v256l-0.192 3.744a32 32 0 0 1-31.808 28.256z"  horiz-adv-x="1024" />
      
      <glyph glyph-name="zoushi-1" unicode="&#59771;" d="M939.072 25.888v-64H84.928v64h854.144z m-316.256 445.76l0.192-3.712v-355.52a32 32 0 0 0-28.256-31.808l-3.744-0.224h-158.016a32 32 0 0 0-31.776 28.288l-0.224 3.712v276.544a32 32 0 0 0 14.208 26.624l3.488 2.016 158.016 79.008a32 32 0 0 0 46.08-24.96z m269.92 182.944a32 32 0 0 0 46.336-28.608v-513.6a32 32 0 0 0-32-32h-158.048a32 32 0 0 0-32 32v434.56a32 32 0 0 0 17.696 28.64zM84.928 349.44a32 32 0 0 0 39.776 31.04l158.016-39.52a32 32 0 0 0 24.256-31.04v-197.536a32 32 0 0 0-32-32H116.928a32 32 0 0 0-32 32z m474.048 66.752l-94.016-47.008v-224.768h94.016v271.776z m316.064 158.016l-94.048-47.008v-382.784h94.08V574.208zM148.896 308.48v-164.064h94.08v140.544l-94.08 23.52zM907.072 816c32.448 0 43.648-42.08 17.6-58.752l-3.296-1.856L289.28 439.328a32 32 0 0 0-17.6-3.2l-4.48 0.768-189.056 47.264 15.52 62.08 177.536-44.352L771.424 752h-93.888v64h229.536z"  horiz-adv-x="1024" />
      
      <glyph glyph-name="zoushi-2" unicode="&#59770;" d="M939.072 25.888v-64H84.928v64h854.144z m-316.256 445.76l0.192-3.712v-355.52a32 32 0 0 0-28.256-31.808l-3.744-0.224h-158.016a32 32 0 0 0-31.776 28.288l-0.224 3.712v276.544a32 32 0 0 0 14.208 26.624l3.488 2.016 158.016 79.008a32 32 0 0 0 46.08-24.96z m269.92 182.944a32 32 0 0 0 46.336-28.608v-513.6a32 32 0 0 0-32-32h-158.048a32 32 0 0 0-32 32v434.56a32 32 0 0 0 17.696 28.64zM84.928 349.44a32 32 0 0 0 39.776 31.04l158.016-39.52a32 32 0 0 0 24.256-31.04v-197.536a32 32 0 0 0-32-32H116.928a32 32 0 0 0-32 32zM907.072 816c32.448 0 43.648-42.08 17.6-58.752l-3.296-1.856L289.28 439.328a32 32 0 0 0-17.6-3.2l-4.48 0.768-189.056 47.264 15.52 62.08 177.536-44.352L771.424 752h-93.888v64h229.536z"  horiz-adv-x="1024" />
      
      <glyph glyph-name="zoushi-3" unicode="&#59769;" d="M832 800a96 96 0 0 0 96-96v-640a96 96 0 0 0-96-96H192a96 96 0 0 0-96 96V704a96 96 0 0 0 96 96z m0-64H192a32 32 0 0 1-32-32v-640a32 32 0 0 1 32-32h640a32 32 0 0 1 32 32V704a32 32 0 0 1-32 32z m-106.656-192h1.056l1.536-0.096-2.592 0.096a32.256 32.256 0 0 0 19.744-6.816c1.984-1.568 3.744-3.328 5.312-5.28l-2.496 2.752a32.224 32.224 0 0 0 9.216-18.912l0.096-0.896 0.096-1.92v-171.584a32 32 0 0 0-63.776-3.744l-0.192 3.744-0.032 93.216-169.632-170.336a32 32 0 0 0-42.24-2.72l-3.04 2.656-70.976 70.848-98.08-98.112a32 32 0 0 0-42.24-2.656l-3.008 2.656a32 32 0 0 0-2.656 42.24l2.656 3.008 120.672 120.704a32 32 0 0 0 42.24 2.656l2.976-2.656 70.944-70.752 147.36 147.936-93.632-0.032a32 32 0 0 0-31.776 28.256L522.656 512a32 32 0 0 0 28.288 31.776l3.712 0.224h170.688z"  horiz-adv-x="1024" />
      
      <glyph glyph-name="zoushi-4" unicode="&#59774;" d="M832 800a96 96 0 0 0 96-96v-640a96 96 0 0 0-96-96H192a96 96 0 0 0-96 96V704a96 96 0 0 0 96 96z m-106.688-256h-170.656l-3.712-0.224a32 32 0 0 1-28.288-31.776l0.224-3.744a32 32 0 0 1 31.776-28.256h93.6l-147.328-147.904-70.944 70.752-3.008 2.656a32 32 0 0 1-42.208-2.656l-120.672-120.704-2.656-3.008a32 32 0 0 1 2.656-42.24l3.008-2.656a32 32 0 0 1 42.24 2.656l98.08 98.112 70.976-70.848 3.04-2.656a32 32 0 0 1 42.24 2.72l169.6 170.304 0.064-93.184 0.192-3.744a32 32 0 0 1 63.808 3.744v171.776l-0.096 1.376-0.128 1.248a28.064 28.064 0 0 1-0.192 1.408l-0.192 1.056a30.528 30.528 0 0 1-0.64 2.624l-0.32 1.024a31.168 31.168 0 0 1-0.768 2.176l-0.64 1.472a32.64 32.64 0 0 1-10.4 12.48 32.672 32.672 0 0 1-12.32 5.376l-1.408 0.256-2.208 0.288-2.72 0.096z"  horiz-adv-x="1024" />
      
      <glyph glyph-name="zoushi-5" unicode="&#59773;" d="M213.344 714.656a32 32 0 0 0 31.776-28.256l0.224-3.744-0.032-181.312h53.344a32 32 0 0 0 31.808-28.288l0.192-3.712v-298.688a32 32 0 0 0-32-32H128a32 32 0 0 0-32 32v298.688a32 32 0 0 0 32 32h53.312V682.656a32 32 0 0 0 32 32z m53.312-277.312H160v-234.656h106.656v234.656z m330.688 192a32 32 0 0 0 32-32v-554.688a32 32 0 0 0-32-32L544 10.688v-53.344a32 32 0 0 0-63.776-3.744L480-42.656v53.344h-53.344a32 32 0 0 0-31.776 28.256l-0.224 3.712V597.344a32 32 0 0 0 32 32z m-32-64h-106.688v-490.656h106.688V565.344z m245.312 277.312a32 32 0 0 0 31.808-28.256l0.192-3.744V672H896a32 32 0 0 0 31.776-28.256L928 640v-192a32 32 0 0 0-32-32h-53.344v-245.344a32 32 0 0 0-63.776-3.712l-0.224 3.712V416h-53.312a32 32 0 0 0-31.808 28.256L693.344 448V640a32 32 0 0 0 32 32h53.312V810.656a32 32 0 0 0 32 32zM864 608h-106.656v-128H864V608z"  horiz-adv-x="1024" />
      
      <glyph glyph-name="zoushi-6" unicode="&#59772;" d="M213.344 714.656a32 32 0 0 0 31.776-28.256l0.224-3.744-0.032-181.312h53.344a32 32 0 0 0 31.808-28.288l0.192-3.712v-298.688a32 32 0 0 0-32-32H128a32 32 0 0 0-32 32v298.688a32 32 0 0 0 32 32h53.312V682.656a32 32 0 0 0 32 32z m384-85.312a32 32 0 0 0 32-32v-554.688a32 32 0 0 0-32-32H544v-53.312a32 32 0 0 0-63.776-3.744L480-42.656v53.312h-53.344a32 32 0 0 0-31.776 28.288l-0.224 3.712V597.344a32 32 0 0 0 32 32z m213.312 213.312a32 32 0 0 0 31.808-28.256l0.192-3.744V672H896a32 32 0 0 0 31.776-28.256L928 640v-192a32 32 0 0 0-32-32h-53.344v-245.344a32 32 0 0 0-63.776-3.712l-0.224 3.712V416h-53.312a32 32 0 0 0-31.808 28.256L693.344 448V640a32 32 0 0 0 32 32h53.312V810.656a32 32 0 0 0 32 32z"  horiz-adv-x="1024" />
      
      <glyph glyph-name="zhuanhuan-1" unicode="&#59767;" d="M832 800a96 96 0 0 0 96-96v-640a96 96 0 0 0-96-96H192a96 96 0 0 0-96 96V704a96 96 0 0 0 96 96z m0-64H192a32 32 0 0 1-32-32v-640a32 32 0 0 1 32-32h640a32 32 0 0 1 32 32V704a32 32 0 0 1-32 32z m-128-384a32 32 0 0 0 3.744-63.776L704 288h-306.72l94.688-94.72a32 32 0 0 0-42.24-47.904l-3.008 2.656-149.344 149.344-2.336 2.624a32.16 32.16 0 0 0-0.224 0.256l2.56-2.88A32.256 32.256 0 0 0 288 319.36v1.184c0 0.768 0.064 1.536 0.128 2.272L288 320a32.256 32.256 0 0 0 6.816 19.744c1.6 2.016 3.424 3.84 5.44 5.44l-2.88-2.56a32.256 32.256 0 0 0 18.88 9.152l0.896 0.096 2.24 0.128H704z m-129.728 270.624l3.008-2.656 149.344-149.344c0.928-0.896 1.76-1.888 2.56-2.88l-2.56 2.88a32.256 32.256 0 0 0 9.344-21.6L736 448v-1.056l-0.128-1.664L736 448a32.256 32.256 0 0 0-6.816-19.744c-1.6-2.016-3.424-3.84-5.44-5.44l2.88 2.56a32.256 32.256 0 0 0-18.88-9.152l-1.024-0.096a32.192 32.192 0 0 0-1.664-0.096L704 416H320a32 32 0 0 0-3.744 63.776L320 480h306.72l-94.688 94.72a32 32 0 0 0 42.24 47.904z"  horiz-adv-x="1024" />
      
      <glyph glyph-name="zhuanhuan-2" unicode="&#59766;" d="M832 800a96 96 0 0 0 96-96v-640a96 96 0 0 0-96-96H192a96 96 0 0 0-96 96V704a96 96 0 0 0 96 96z m-128-448H319.424c-0.768 0-1.536-0.064-2.272-0.128l-0.896-0.096a32 32 0 0 1-15.296-6.08l-0.576-0.416a32.608 32.608 0 0 1-11.232-16.768 30.24 30.24 0 0 1-0.8-3.776l-0.128-0.992-0.096-0.896a32.192 32.192 0 0 1-0.128-2.24V320a32.64 32.64 0 0 1 4-15.488 28.096 28.096 0 0 1 2.272-3.552l0.448-0.576c0.16-0.224 0.224-0.32 0.32-0.384l2.336-2.624 149.344-149.344 3.008-2.656a32 32 0 0 1 42.24 47.904L397.28 288H704l3.744 0.224A32 32 0 0 1 704 352z m-129.728 270.624a32 32 0 0 1-42.24-47.904L626.72 480H320l-3.744-0.224A32 32 0 0 1 320 416h385.056l1.664 0.128 1.024 0.096a32 32 0 0 1 15.296 6.08l0.576 0.416a32.608 32.608 0 0 1 11.232 16.768 30.24 30.24 0 0 1 0.8 3.776l0.128 0.992 0.096 1.024c0.064 0.544 0.096 1.088 0.096 1.664L736 448a32.576 32.576 0 0 1-4.672 16.64 33.12 33.12 0 0 1-1.6 2.4l-0.448 0.576a33.184 33.184 0 0 1-2.656 3.008L577.28 619.968z"  horiz-adv-x="1024" />
      
      <glyph glyph-name="liwu-1" unicode="&#59765;" d="M880.48 649.728h-130.048c38.592 64.32 40 131.52 1.44 167.232-48.608 45.248-141.024 21.92-210.112-52.896a276.768 276.768 0 0 1-29.536-38.592 251.36 251.36 0 0 1-29.536 38.592c-69.056 74.816-161.024 97.664-209.6 52.896-39.04-35.744-37.152-102.912 0.96-167.232H143.968a94.048 94.048 0 0 1-93.824-93.856v-70.976c0-44.8 31.904-82.4 73.824-91.456V31.36a103.296 103.296 0 0 1 103.36-103.392h569.312a103.296 103.296 0 0 1 103.36 103.36V393.472a93.504 93.504 0 0 1 73.856 91.456v70.976a93.344 93.344 0 0 1-93.376 93.856z m-171.968 120.544c16.192-15.264 9.056-62.4-27.648-109.568-2.848-3.36-4.288-7.168-5.696-10.976h-129.6c7.168 23.84 22.4 49.088 42.4 70.976 49.088 52.896 104.32 64.8 120.544 49.568zM343.584 660.704c-36.672 46.688-43.84 94.304-27.616 109.568 16.192 15.232 71.456 3.328 120.032-49.568 20.48-21.888 35.264-47.616 42.4-70.976h-129.568c-0.96 3.84-2.88 7.616-5.248 10.976zM187.84 30.912V391.04h292.992v-400.16H227.84a40.256 40.256 0 0 0-40 40z m608.832-39.552H543.68V391.52h292.992v-360.128c0-22.4-17.632-40.032-40.032-40.032z m113.856 493.536a30.72 30.72 0 0 0-30.496-30.496h-736a30.72 30.72 0 0 0-30.496 30.496v70.976a30.72 30.72 0 0 0 30.464 30.496h736.512a30.72 30.72 0 0 0 30.496-30.496v-70.976h-0.48z"  horiz-adv-x="1024" />
      
      <glyph glyph-name="liwu-2" unicode="&#59764;" d="M541.76 764.064c69.088 74.816 161.504 98.144 210.112 52.896 38.56-35.744 37.12-102.912-1.44-167.232h130.048a93.344 93.344 0 0 0 93.376-93.856v-70.976c0-44.8-31.424-82.4-73.824-91.456V31.36a103.296 103.296 0 0 0-103.392-103.392H227.36a103.296 103.296 0 0 0-103.36 103.36V393.472a93.984 93.984 0 0 0-73.856 91.456v70.976a94.048 94.048 0 0 0 93.824 93.856h130.08c-38.112 64.32-40 131.52-0.96 167.232 48.576 44.8 140.544 21.92 209.6-52.896 11.456-11.904 20.96-25.248 29.536-38.592 8.576 13.344 18.112 26.24 29.536 38.592zM512 357.184a32 32 0 0 1-32-32v-288a32 32 0 1 1 64 0v288a32 32 0 0 1-32 32z m288 159.36H224a32 32 0 1 1 0-64h576a32 32 0 1 1 0 64z"  horiz-adv-x="1024" />
      
      <glyph glyph-name="youhuiquan-1" unicode="&#59763;" d="M832 778.656A138.656 138.656 0 0 0 970.656 640v-512A138.656 138.656 0 0 0 832-10.656H192A138.656 138.656 0 0 0 53.344 128V640A138.656 138.656 0 0 0 192 778.656z m0-64H192A74.656 74.656 0 0 1 117.344 640v-512A74.656 74.656 0 0 1 192 53.344h640A74.656 74.656 0 0 1 906.656 128V640A74.656 74.656 0 0 1 832 714.656z m-192-93.408L685.248 576l-138.656-138.656h146.752v-64H544v-64h149.344v-64H544v-106.688h-64v106.688h-149.344v64H480v64h-149.344v64h146.752L338.752 576 384 621.248l128-127.968 128 128z"  horiz-adv-x="1024" />
      
      <glyph glyph-name="youhuiquan-2" unicode="&#59768;" d="M832 778.656A138.656 138.656 0 0 0 970.656 640v-512A138.656 138.656 0 0 0 832-10.656H192A138.656 138.656 0 0 0 53.344 128V640A138.656 138.656 0 0 0 192 778.656z m-192-157.408l-128-127.968-128 128L338.752 576l138.656-138.656h-146.752v-64H480v-64h-149.344v-64H480v-106.688h64v106.688h149.344v64H544v64h149.344v64H546.56L685.248 576 640 621.248z"  horiz-adv-x="1024" />
      
      <glyph glyph-name="gouwuche-1" unicode="&#59757;" d="M149.344 800a32 32 0 0 0 29.952-20.768l1.088-3.456L206.304 672 949.344 672a32 32 0 0 0 31.712-36.192l-0.672-3.584-106.688-426.656a32 32 0 0 0-27.392-24l-3.648-0.224H288a32 32 0 0 0-29.952 20.768l-1.088 3.456L158.08 601.184 124.288 736H42.656V800h106.688z m758.976-192H222.304L312.96 245.344h504.64L908.352 608z m-310.976-64v-85.312h85.312v-64h-85.344v-85.344h-64v85.344H448v64h85.312V544h64zM288 160a96 96 0 1 1 0-192 96 96 0 0 1 0 192z m0-64a32 32 0 1 0 0-64 32 32 0 0 0 0 64z m554.656 64a96 96 0 1 1 0-192 96 96 0 0 1 0 192z m0-64a32 32 0 1 0 0-64 32 32 0 0 0 0 64z"  horiz-adv-x="1024" />
      
      <glyph glyph-name="gouwuche-2" unicode="&#59762;" d="M288 160a96 96 0 1 0 0-192 96 96 0 0 0 0 192z m554.656 0a96 96 0 1 0 0-192 96 96 0 0 0 0 192zM288 96a32 32 0 1 1 0-64 32 32 0 0 1 0 64z m554.656 0a32 32 0 1 1 0-64 32 32 0 0 1 0 64zM149.344 800a32 32 0 0 0 29.952-20.768l1.088-3.456L206.304 672 949.344 672a32 32 0 0 0 31.712-36.192l-0.672-3.584-106.688-426.656a32 32 0 0 0-27.392-24l-3.648-0.224H288a32 32 0 0 0-29.952 20.768l-1.088 3.456L158.08 601.184 124.288 736H42.656V800h106.688z m448-256h-64v-85.312H448v-64h85.312v-85.344h64v85.344h85.344v64h-85.344V544z"  horiz-adv-x="1024" />
      
      <glyph glyph-name="youhuiquan-3" unicode="&#59761;" d="M896 666.656A74.656 74.656 0 0 0 970.656 592v-554.656A74.656 74.656 0 0 0 896-37.344H128a74.656 74.656 0 0 0-74.656 74.688V592A74.656 74.656 0 0 0 128 666.656z m0-64H128a10.656 10.656 0 0 1-10.656-10.656v-554.656c0-5.888 4.768-10.688 10.656-10.688h768c5.888 0 10.656 4.8 10.656 10.688V592A10.656 10.656 0 0 1 896 602.656z m-471.04-92.032l3.008-2.656L512 423.936l84.032 84.032a32 32 0 0 0 42.24 2.656l3.008-2.656a32 32 0 0 0 2.688-42.24l-2.688-3.008-73.344-73.376H640a32 32 0 0 0 3.744-63.808l-3.744-0.192h-96v-64h96a32 32 0 0 0 3.744-63.808l-3.744-0.192h-96V144a32 32 0 0 0-63.776-3.744L480 144v53.344h-96a32 32 0 0 0-3.744 63.776l3.744 0.224h96v64h-96a32 32 0 0 0-3.744 63.776l3.744 0.224h72.064L382.72 462.72a32 32 0 0 0 42.24 47.904z m428.384 284.032a32 32 0 0 0 3.712-63.776l-3.712-0.224H170.656a32 32 0 0 0-3.712 63.808l3.712 0.192h682.688z"  horiz-adv-x="1024" />
      
      <glyph glyph-name="youhuiquan-4" unicode="&#59760;" d="M896 666.656A74.656 74.656 0 0 0 970.656 592v-554.656A74.656 74.656 0 0 0 896-37.344H128a74.656 74.656 0 0 0-74.656 74.688V592A74.656 74.656 0 0 0 128 666.656z m-471.04-156.032a32 32 0 0 1-42.24-47.904l73.344-73.376H384l-3.744-0.224A32 32 0 0 1 384 325.344h96v-64h-96l-3.744-0.224A32 32 0 0 1 384 197.344h96V144l0.224-3.744A32 32 0 0 1 544 144v53.344h96l3.744 0.192A32 32 0 0 1 640 261.344h-96v64h96l3.744 0.192A32 32 0 0 1 640 389.344h-72.064l73.344 73.376 2.688 3.008a32 32 0 0 1-2.688 42.24l-3.008 2.656a32 32 0 0 1-42.24-2.656L512 423.936l-84.032 84.032z m428.384 284.032a32 32 0 0 0 3.712-63.776l-3.712-0.224H170.656a32 32 0 0 0-3.712 63.808l3.712 0.192h682.688z"  horiz-adv-x="1024" />
      
      <glyph glyph-name="hongbao-1" unicode="&#59759;" d="M848 842.656h-672a32 32 0 0 1-32-32v-128a32 32 0 0 1 24.128-31.008l336-85.344a32 32 0 0 1 15.744 0l336 85.344a32 32 0 0 1 24.128 31.04v128a32 32 0 0 1-32 32z m-32-63.968v-71.136L512 630.336 208 707.552V778.688h608z m32-213.344a32 32 0 0 0 31.776-28.288l0.224-3.712v-576a32 32 0 0 0-28.256-31.808l-3.744-0.192h-672a32 32 0 0 0-31.776 28.256l-0.224 3.744v576a32 32 0 0 0 63.776 3.712l0.224-3.712v-544h608v544a32 32 0 0 0 28.256 31.776l3.744 0.224z m-208.832-50.08a32 32 0 0 0 6.464-41.824l-2.368-3.264-62.944-75.52H640a32 32 0 0 0 3.744-63.776l-3.744-0.224h-96v-64h96a32 32 0 0 0 3.744-63.776l-3.744-0.224h-96v-96a32 32 0 0 0-63.776-3.712L480 106.656v96h-96a32 32 0 0 0-3.744 63.808l3.744 0.192h96v64h-96a32 32 0 0 0-3.744 63.808l3.744 0.192h59.648l-62.912 75.52a32 32 0 0 0 46.4 43.904l2.784-2.912L512 412.672l82.08 98.496a32 32 0 0 0 45.088 4.096z"  horiz-adv-x="1024" />
      
      <glyph glyph-name="hongbao-2" unicode="&#59758;" d="M832 842.656H192a32 32 0 0 1-32-32v-128a32 32 0 0 1 23.744-30.912l320-85.344a32 32 0 0 1 16.512 0l320 85.344A32 32 0 0 1 864 682.656v128a32 32 0 0 1-32 32zM224 565.344v-576h576v576h64v-608a32 32 0 0 0-28.256-31.808l-3.744-0.192H192a32 32 0 0 0-31.776 28.256L160-42.656v608h64z m390.56-29.6l49.184-40.96-83.456-100.128H672v-64h-128v-64h128v-64h-128v-128h-64v128h-128v64h128v64h-128v64h91.68l-83.424 100.096 49.184 40.96L512 412.704l102.56 123.072z"  horiz-adv-x="1024" />
      
      <glyph glyph-name="gouwuche-3" unicode="&#59755;" d="M149.344 800a32 32 0 0 0 29.952-20.768l1.088-3.456L206.304 672 949.344 672a32 32 0 0 0 31.712-36.192l-0.672-3.584-106.688-426.656a32 32 0 0 0-31.04-24.224H288a32 32 0 0 0-31.04 24.224L158.08 601.184 124.288 736H42.656V800h106.688z m758.976-192H222.304L312.96 245.344h504.672L908.32 608zM288 160a96 96 0 1 1 0-192 96 96 0 0 1 0 192z m0-64a32 32 0 1 0 0-64 32 32 0 0 0 0 64z m554.656 64a96 96 0 1 1 0-192 96 96 0 0 1 0 192z m0-64a32 32 0 1 0 0-64 32 32 0 0 0 0 64z"  horiz-adv-x="1024" />
      
      <glyph glyph-name="gouwuche-4" unicode="&#59754;" d="M149.344 800a32 32 0 0 0 29.952-20.768l1.088-3.456L206.304 672h743.04a32 32 0 0 0 31.712-36.192l-0.672-3.584-106.688-426.656a32 32 0 0 0-27.392-24l-3.648-0.224H288a32 32 0 0 0-29.952 20.768l-1.088 3.456L124.32 736H42.656V800h106.688zM288 160a96 96 0 1 1 0-192 96 96 0 0 1 0 192z m0-64a32 32 0 1 0 0-64 32 32 0 0 0 0 64z m554.656 64a96 96 0 1 1 0-192 96 96 0 0 1 0 192z m0-64a32 32 0 1 0 0-64 32 32 0 0 0 0 64z"  horiz-adv-x="1024" />
      
      <glyph glyph-name="gouwu-1" unicode="&#59753;" d="M775.104 821.344a32 32 0 0 0 23.232-10.016l2.432-2.88 120.896-162.112 0.48-0.704c0.512-0.704 0.992-1.472 1.44-2.24l-1.92 2.944A32.256 32.256 0 0 0 928 627.2l-0.064 1.984 0.064-1.28v-606.56a74.656 74.656 0 0 0-74.656-74.688H170.656A74.656 74.656 0 0 0 96 21.344V627.2a32.64 32.64 0 0 0 4.16 15.776l0.256 0.448c0.448 0.736 0.928 1.504 1.44 2.24l0.48 0.64 120.896 162.144a32 32 0 0 0 21.888 12.672l3.776 0.224h526.208zM864 595.2H160v-573.888c0-5.152 3.648-9.472 8.512-10.464l2.144-0.224h682.688c5.888 0 10.656 4.8 10.656 10.688V595.2zM673.184 518.4a32 32 0 0 0 32-32c0-107.2-86.464-194.144-193.184-194.144-106.752 0-193.184 86.976-193.184 194.144a32 32 0 0 0 64 0c0-71.904 57.888-130.144 129.184-130.144 71.296 0 129.184 58.24 129.184 130.144a32 32 0 0 0 32 32z m85.856 238.944H264.928L191.776 659.2h640.416L759.04 757.344z"  horiz-adv-x="1024" />
      
      <glyph glyph-name="gouwu-2" unicode="&#59752;" d="M775.104 821.344a32 32 0 0 0 23.232-10.016l2.432-2.88 120.896-162.112c0.928-1.28 1.76-2.56 2.496-3.904l1.728-3.776 1.12-3.488 0.704-3.584 0.288-3.68v-606.56c0-39.52-30.72-71.872-69.568-74.496l-5.12-0.192H170.688a74.656 74.656 0 0 0-74.496 69.568L96 21.344l0.096 608.192 0.448 3.552 0.96 3.776 1.28 3.36 1.376 2.752 1.696 2.656 121.376 162.816a32 32 0 0 0 21.888 12.672l3.776 0.224h526.208zM673.184 518.4a32 32 0 0 1-32-32c0-71.904-57.888-130.144-129.184-130.144-71.296 0-129.184 58.24-129.184 130.144a32 32 0 0 1-64 0c0-107.2 86.432-194.144 193.184-194.144 106.72 0 193.184 86.976 193.184 194.144a32 32 0 0 1-32 32z m85.856 238.944H264.928L191.744 659.232h640.448L759.04 757.344z"  horiz-adv-x="1024" />
      
      <glyph glyph-name="jiangpai-1" unicode="&#59751;" d="M510.912 662.4c204.992 0 371.2-166.176 371.2-371.2s-166.208-371.2-371.2-371.2c-205.024 0-371.2 166.176-371.2 371.2s166.176 371.2 371.2 371.2z m0-64a307.2 307.2 0 1 1 0-614.4 307.2 307.2 0 0 1 0 614.4z m-7.104-167.168a16 16 0 0 0 21.44-7.264l38.208-77.44 85.536-12.48a16 16 0 0 0 8.864-27.264l-61.856-60.32 14.592-85.152a16 16 0 0 0-23.2-16.864l-76.48 40.192-76.48-40.192a16 16 0 0 0-23.2 16.864l14.56 85.12-61.856 60.352a16 16 0 0 0 8.864 27.296l85.504 12.416 38.24 77.472a16 16 0 0 0 7.264 7.264zM835.36 848a64 64 0 0 0 59.232-88.256l-76.16-186.048a416.544 416.544 0 0 1-271.488 133.568L605.12 848h230.272z m-416.416 0l58.08-140.608a416.48 416.48 0 0 1-263.84-123.328l-8.32-8.704-75.456 184.384A64 64 0 0 0 188.64 848h230.304z m416.416-64h-187.52l-11.424-27.776 1.152-0.32a480.64 480.64 0 0 0 142.464-65.248l13.312-9.312L835.36 784z m-459.232 0H188.64l41.536-101.44 1.92 1.408a480.576 480.576 0 0 0 140.8 68.672l14.496 4.128-11.264 27.232z"  horiz-adv-x="1024" />
      
      <glyph glyph-name="jiangpai-2" unicode="&#59756;" d="M510.88 662.4c205.024 0 371.2-166.176 371.2-371.2s-166.176-371.2-371.2-371.2c-204.992 0-371.2 166.176-371.2 371.2S305.92 662.4 510.88 662.4z m-7.072-231.168a16 16 0 0 1-7.264-7.264l-38.272-77.44-85.472-12.48a16 16 0 0 1-8.864-27.264l61.856-60.32-14.56-85.152a16 16 0 0 1 23.2-16.864l76.48 40.192 76.48-40.192a16 16 0 0 1 23.2 16.864l-14.592 85.12 61.856 60.352a16 16 0 0 1-8.864 27.296l-85.536 12.416-38.208 77.472a16 16 0 0 1-21.44 7.264zM883.04 848a32 32 0 0 0 29.632-44.128l-94.24-230.176a416.544 416.544 0 0 1-271.488 133.568L605.088 848h277.952z m-464.128 0l58.112-140.608a416.48 416.48 0 0 1-272.128-132.032L111.36 803.84A32 32 0 0 0 140.96 848h277.952z"  horiz-adv-x="1024" />
      
      <glyph glyph-name="qianbao-1" unicode="&#59750;" d="M844.8 794.4l6.848-0.16a145.696 145.696 0 0 0 138.656-138.656l0.16-6.848v-529.472l-0.16-6.848a145.696 145.696 0 0 0-138.656-138.656l-6.848-0.16H179.2l-6.848 0.16a145.696 145.696 0 0 0-138.656 138.656l-0.16 6.848V648.736l0.16 6.848A145.696 145.696 0 0 0 172.352 794.24l6.848 0.16h665.6z m0-64.448H179.2l-5.344-0.16a81.344 81.344 0 0 1-75.712-75.744l-0.192-5.312v-529.472l0.192-5.312a81.344 81.344 0 0 1 75.712-75.744l5.344-0.16h665.6l5.344 0.16a81.344 81.344 0 0 1 75.712 75.744l0.192 5.312-0.032 92.608h-300.576l-5.888 0.128a107.84 107.84 0 0 0-101.792 101.792l-0.16 5.92v128.576l0.16 5.92 0.48 5.824a107.872 107.872 0 0 0 101.312 95.968l5.888 0.16h300.576V648.736l-0.16 5.312A81.344 81.344 0 0 1 844.8 729.952z m81.248-238.24h-300.608l-4.16-0.192a43.488 43.488 0 0 1-39.04-39.04l-0.192-4.16v-128.64l0.192-4.16a43.488 43.488 0 0 1 39.04-39.04l4.16-0.192h300.608v215.424z m-81.248-75.52a32.224 32.224 0 1 0 0-64.416 32.224 32.224 0 0 0 0 64.448z"  horiz-adv-x="1024" />
      
      <glyph glyph-name="qianbao-2" unicode="&#59749;" d="M990.464 119.264l-0.16-6.848a145.696 145.696 0 0 0-138.656-138.656l-6.848-0.16H179.2l-6.848 0.16a145.696 145.696 0 0 0-138.656 138.656l-0.16 6.848V648.736l0.16 6.848A145.696 145.696 0 0 0 172.352 794.24l6.848 0.16h665.6l6.848-0.16a145.696 145.696 0 0 0 138.656-138.656l0.16-6.848v-529.472z m-145.664 296.96a32.224 32.224 0 1 1 0-64.448 32.224 32.224 0 0 1 0 64.448z m81.216-204.352v64.416h-300.576l-4.16 0.192a43.52 43.52 0 0 0-38.464 34.976l-0.576 4.064-0.192 4.16v128.64l0.192 4.16a43.52 43.52 0 0 0 34.976 38.432l4.064 0.608 4.16 0.192h300.608l-0.032 64.448h-300.576l-5.888-0.16a107.904 107.904 0 0 1-100.48-89.984l-0.832-5.984-0.48-5.824-0.16-5.92v-128.576l0.16-5.92a107.872 107.872 0 0 1 95.936-101.312l5.856-0.48 5.888-0.16h300.576z"  horiz-adv-x="1024" />
      
      <glyph glyph-name="jiangpai-3" unicode="&#59748;" d="M768 821.344a32 32 0 0 0 31.776-28.288l0.224-3.712V672L938.656 672a32 32 0 0 0 31.808-28.256l0.192-3.744c0-141.28-81.088-237.216-188.704-244.832-37.44-103.296-129.536-179.36-240.384-190.976a30.72 30.72 0 0 0 2.24-8.448L544 192v-53.312h75.584a32 32 0 0 0 24.32-11.2l2.368-3.2 84.448-128a32 32 0 0 0-26.72-49.6H320a32 32 0 0 0-27.264 48.736l78.72 128a32 32 0 0 0 27.264 15.232H480V192c0 4.352 0.864 8.48 2.432 12.256-110.848 11.52-202.976 87.584-240.416 190.848C134.4 402.784 53.344 498.72 53.344 640a32 32 0 0 0 28.256 31.776L85.344 672H224V789.376a32 32 0 0 0 28.256 31.776L256 821.344h512z m-165.632-746.656h-185.76l-39.36-64h267.328l-42.24 64zM736 757.344H288v-259.136c0-122.816 92.384-222.976 208.832-231.04l7.648-0.384 7.52-0.128c120.96 0 219.904 99.296 223.872 223.744l0.128 7.808V757.344zM224 608H119.04l0.288-2.304c8.768-73.376 45.856-122.752 95.36-140.16l5.984-1.92 3.328-0.864V608z m680.896 0H800v-145.216l3.328 0.832c50.464 14.816 89.152 61.92 100.16 133.376l1.184 8.704 0.224 2.304z"  horiz-adv-x="1024" />
      
      <glyph glyph-name="jiangpai-4" unicode="&#59747;" d="M768 821.344a32 32 0 0 0 31.776-28.288l0.224-3.712V672L938.656 672a32 32 0 0 0 31.808-28.256l0.192-3.744c0-141.28-81.088-237.216-188.704-244.832-37.44-103.296-129.536-179.36-240.384-190.976a30.72 30.72 0 0 0 2.24-8.448L544 192v-53.312h75.584a32 32 0 0 0 24.32-11.2l2.368-3.2 84.448-128a32 32 0 0 0-26.72-49.6H320a32 32 0 0 0-27.264 48.736l78.72 128a32 32 0 0 0 27.264 15.232H480V192c0 4.352 0.864 8.48 2.432 12.256-110.848 11.52-202.976 87.584-240.416 190.848C134.4 402.784 53.344 498.72 53.344 640a32 32 0 0 0 28.256 31.776L85.344 672H224V789.376a32 32 0 0 0 28.256 31.776L256 821.344h512zM224 608H119.04l0.288-2.272c8.768-73.376 45.856-122.752 95.36-140.16l5.984-1.92 3.328-0.896v145.28z m680.896 0H800v-145.184l3.328 0.832c50.464 14.816 89.152 61.92 100.16 133.376l1.184 8.704 0.224 2.272z"  horiz-adv-x="1024" />
      
      <glyph glyph-name="qianbi-1" unicode="&#59746;" d="M512 842.656c253.312 0 458.656-205.344 458.656-458.656S765.312-74.656 512-74.656 53.344 130.688 53.344 384 258.688 842.656 512 842.656z m0-64C294.016 778.656 117.344 601.984 117.344 384S294.016-10.656 512-10.656 906.656 166.016 906.656 384 729.984 778.656 512 778.656z m-52.8-251.36a74.656 74.656 0 0 0 105.6 0l90.496-90.496a74.656 74.656 0 0 0 0-105.6l-90.496-90.496a74.656 74.656 0 0 0-105.6 0l-90.496 90.496a74.656 74.656 0 0 0 0 105.6z m60.352-45.248a10.656 10.656 0 0 1-15.104 0l-90.496-90.496a10.656 10.656 0 0 1 0-15.104l90.496-90.496c4.16-4.16 10.944-4.16 15.104 0l90.496 90.496a10.656 10.656 0 0 1 0 15.104z"  horiz-adv-x="1024" />
      
      <glyph glyph-name="qianbi-2" unicode="&#59745;" d="M512 842.656c253.312 0 458.656-205.344 458.656-458.656S765.312-74.656 512-74.656 53.344 130.688 53.344 384 258.688 842.656 512 842.656z m-52.8-315.36l-90.496-90.496a74.656 74.656 0 0 1 0-105.6l90.496-90.496a74.656 74.656 0 0 1 105.6 0l90.496 90.496a74.656 74.656 0 0 1 0 105.6l-90.496 90.496a74.656 74.656 0 0 1-105.6 0z m60.352-45.248l90.496-90.496c4.16-4.16 4.16-10.912 0-15.104l-90.496-90.496a10.656 10.656 0 0 0-15.104 0l-90.496 90.496a10.656 10.656 0 0 0 0 15.104l90.496 90.496c4.16 4.16 10.944 4.16 15.104 0z"  horiz-adv-x="1024" />
      
      <glyph glyph-name="qianbao-3" unicode="&#59743;" d="M703.744 829.76l2.048-3.104L795.072 672H896c39.52 0 71.872-30.72 74.496-69.568l0.16-5.12V0c0-39.52-30.72-71.872-69.536-74.496l-5.12-0.16H128a74.656 74.656 0 0 0-74.496 69.536L53.344 0V597.344c0 39.52 30.72 71.84 69.536 74.496L128 672h245.888l288.192 166.4a32 32 0 0 0 41.664-8.64zM896 608H128a10.656 10.656 0 0 1-10.464-8.512l-0.192-2.144V0c0-5.152 3.648-9.472 8.512-10.464l2.144-0.192h768a10.656 10.656 0 0 1 10.464 8.512l0.192 2.144v160H752c-76.864 0-140.16 58.144-143.84 131.904L608 298.656c0 74.688 61.056 135.04 137.056 138.528l6.944 0.16h154.656v160A10.656 10.656 0 0 1 896 608z m10.656-234.656H752c-40.896 0-74.144-28.48-79.296-64.8l-0.544-5.024-0.16-4.864c0-39.232 32.704-71.936 74.688-74.496L752 224h154.656v149.344z m-240.32 393.6l-163.52-94.4 218.176-0.224-54.624 94.624z"  horiz-adv-x="1024" />
      
      <glyph glyph-name="qianbao-4" unicode="&#59742;" d="M965.344 0c0-39.52-30.72-71.872-69.568-74.496l-5.12-0.16h-768a74.656 74.656 0 0 0-74.496 69.536L48 0V597.344c0 39.52 30.72 71.872 69.568 74.496L122.688 672h245.856l288.192 166.4a32 32 0 0 0 41.664-8.608l2.048-3.136 89.28-154.624L890.656 672c39.52 0 71.872-30.72 74.496-69.568l0.192-5.12V0z m-64.032 437.376l-154.656-0.032c-79.168 0-144-61.76-144-138.688S667.52 160 746.656 160h154.656v277.376z m0-64V224h-154.656c-44.512 0-80 33.792-80 74.656l0.192 4.896c2.656 38.656 37.088 69.76 79.808 69.76l154.656 0.032z m-240.32 393.6l-163.52-94.4 218.208-0.288-54.656 94.656z"  horiz-adv-x="1024" />
      
      <glyph glyph-name="qianbi-3" unicode="&#59739;" d="M512 842.656c253.312 0 458.656-205.344 458.656-458.656S765.312-74.656 512-74.656 53.344 130.688 53.344 384 258.688 842.656 512 842.656z m0-64C294.016 778.656 117.344 601.984 117.344 384S294.016-10.656 512-10.656 906.656 166.016 906.656 384 729.984 778.656 512 778.656zM403.616 601.28l3.008-2.656L512 493.28l105.408 105.344a32 32 0 0 0 42.24 2.656l3.008-2.656a32 32 0 0 0 2.656-42.24l-2.656-3.008-94.72-94.72H640a32 32 0 0 0 3.744-63.776l-3.744-0.224h-95.84v-64H640a32 32 0 0 0 3.744-63.776l-3.744-0.224h-95.84v-96a32 32 0 0 0-63.776-3.712l-0.192 3.712-0.032 96H384a32 32 0 0 0-3.744 63.808l3.744 0.192h96.16v64H384a32 32 0 0 0-3.744 63.808l3.744 0.192h72.096l-94.72 94.72a32 32 0 0 0 42.24 47.904z"  horiz-adv-x="1024" />
      
      <glyph glyph-name="qianbi-4" unicode="&#59738;" d="M512 842.656c253.312 0 458.656-205.344 458.656-458.656S765.312-74.656 512-74.656 53.344 130.688 53.344 384 258.688 842.656 512 842.656zM403.616 601.28a32 32 0 0 1-42.24-47.904l94.72-94.72H384l-3.744-0.192A32 32 0 0 1 384 394.656h96.16v-64H384l-3.744-0.192A32 32 0 0 1 384 266.656h96.16v-96l0.224-3.712a32 32 0 0 1 63.808 3.712l-0.032 96H640l3.744 0.224A32 32 0 0 1 640 330.656h-95.84v64H640l3.744 0.224A32 32 0 0 1 640 458.656h-72.096l94.72 94.72 2.656 3.008a32 32 0 0 1-2.656 42.24l-3.008 2.656a32 32 0 0 1-42.24-2.656L512 493.248l-105.376 105.376z"  horiz-adv-x="1024" />
      
      <glyph glyph-name="yinhangka-1" unicode="&#59737;" d="M896 757.344a74.656 74.656 0 0 0 74.656-74.688v-597.312A74.656 74.656 0 0 0 896 10.656H128a74.656 74.656 0 0 0-74.656 74.688V682.656A74.656 74.656 0 0 0 128 757.344z m10.656-234.656H117.344v-437.344c0-5.152 3.648-9.472 8.512-10.464l2.144-0.224h768c5.888 0 10.656 4.8 10.656 10.688V522.688zM768 245.344a32 32 0 0 0 3.744-63.808l-3.744-0.192h-192a32 32 0 0 0-3.744 63.776l3.744 0.224h192z m128 448H128a10.656 10.656 0 0 1-10.656-10.688v-96h789.312v96a10.656 10.656 0 0 1-8.512 10.464L896 693.344z"  horiz-adv-x="1024" />
      
      <glyph glyph-name="yinhangka-2" unicode="&#59740;" d="M896 757.344a74.656 74.656 0 0 0 74.656-74.688v-597.312A74.656 74.656 0 0 0 896 10.656H128a74.656 74.656 0 0 0-74.656 74.688V682.656A74.656 74.656 0 0 0 128 757.344z m-128-512h-192l-3.744-0.224A32 32 0 0 1 576 181.344h192l3.744 0.192A32 32 0 0 1 768 245.344z m95.552 341.312H160l-3.744-0.192A32 32 0 0 1 160 522.656h703.552l3.744 0.224a32 32 0 0 1-3.744 63.776z"  horiz-adv-x="1024" />
      
      <glyph glyph-name="youhuiquan-5" unicode="&#59736;" d="M874.656 810.656a96 96 0 0 0 95.84-90.336l0.16-5.664v-220a32 32 0 0 0-21.248-30.144A85.312 85.312 0 0 1 893.088 384c0-36.512 22.88-68.608 56.32-80.512a32 32 0 0 0 20.992-26.144l0.256-4v-220a96 96 0 0 0-90.336-95.84l-5.664-0.16H149.344a96 96 0 0 0-95.84 90.336l-0.16 5.664v220a32 32 0 0 0 21.248 30.144A85.312 85.312 0 0 1 130.912 384a85.312 85.312 0 0 1-56.32 80.512 32 32 0 0 0-20.992 26.144l-0.256 4V714.656A96 96 0 0 0 143.68 810.496l5.664 0.16h725.312z m0-64H149.344a32 32 0 0 1-31.808-28.256l-0.192-3.744-0.032-199.392 3.584-2.016a149.472 149.472 0 0 0 73.28-114.528l0.576-7.68 0.16-7.04c0-51.84-26.464-98.592-67.968-125.536l-6.048-3.712-3.584-1.984v-199.424a32 32 0 0 1 24.672-31.168l3.616-0.64 3.744-0.192h725.312a32 32 0 0 1 31.808 28.256l0.192 3.744v199.424l-3.552 1.984a149.472 149.472 0 0 0-73.28 114.528l-0.576 7.68-0.16 7.04c0 51.84 26.464 98.592 67.968 125.536l6.048 3.712 3.552 2.016V714.656a32 32 0 0 1-24.64 31.168l-3.616 0.64-3.744 0.192zM640 277.344a32 32 0 0 0 3.744-63.808l-3.744-0.192h-256a32 32 0 0 0-3.744 63.776l3.744 0.224h256z m0 256a32 32 0 0 0 3.744-63.808l-3.744-0.192h-256a32 32 0 0 0-3.744 63.776l3.744 0.224h256z"  horiz-adv-x="1024" />
      
      <glyph glyph-name="youhuiquan-6" unicode="&#59731;" d="M874.656 810.656a96 96 0 0 0 96-96v-220a32 32 0 0 0-21.248-30.144A85.312 85.312 0 0 1 893.088 384c0-36.512 22.88-68.608 56.32-80.512a32 32 0 0 0 21.248-30.144v-220a96 96 0 0 0-96-96H149.344a96 96 0 0 0-96 96v220a32 32 0 0 0 21.248 30.144A85.312 85.312 0 0 1 130.912 384a85.312 85.312 0 0 1-56.32 80.512 32 32 0 0 0-21.248 30.144V714.656a96 96 0 0 0 96 96zM640 277.344h-256l-3.744-0.224A32 32 0 0 1 384 213.344h256l3.744 0.192A32 32 0 0 1 640 277.344z m0 256h-256l-3.744-0.224A32 32 0 0 1 384 469.344h256l3.744 0.192A32 32 0 0 1 640 533.344z"  horiz-adv-x="1024" />
      
      <glyph glyph-name="youhuiquan-7" unicode="&#59730;" d="M874.656 810.656a96 96 0 0 0 96-96v-220a32 32 0 0 0-21.248-30.144A85.312 85.312 0 0 1 893.088 384c0-36.512 22.88-68.608 56.32-80.512a32 32 0 0 0 21.248-30.144v-220a96 96 0 0 0-96-96H149.344a96 96 0 0 0-96 96v220a32 32 0 0 0 21.248 30.144A85.312 85.312 0 0 1 130.912 384a85.312 85.312 0 0 1-56.32 80.512 32 32 0 0 0-21.248 30.144V714.656a96 96 0 0 0 96 96z m0-64H149.344a32 32 0 0 1-32-32v-199.392l3.552-2.016a149.504 149.504 0 0 0 73.856-122.208l0.16-7.04c0-54.272-29.056-103.04-74.016-129.28l-3.584-1.952v-199.424a32 32 0 0 1 28.288-31.808l3.744-0.192h725.312a32 32 0 0 1 32 32v199.424l-3.552 1.984a149.504 149.504 0 0 0-73.856 122.208L829.12 384c0 54.272 29.056 103.04 74.016 129.28l3.552 1.984V714.656a32 32 0 0 1-28.256 31.808l-3.744 0.192zM603.2 353.632l6.08-0.16a106.432 106.432 0 1 0-12.096 0l6.016 0.16z m0-54.432a51.968 51.968 0 1 1 0-103.968 51.968 51.968 0 0 1 0 103.968z m48.608 255.04a30.4 30.4 0 0 0 24.128-48.992l-2.656-3.008-279.456-279.456a30.336 30.336 0 0 0-43.008 0 30.4 30.4 0 0 0-2.624 40.032l2.624 3.04 279.456 279.424a30.4 30.4 0 0 0 21.536 8.96zM420.8 627.2l6.08-0.16a106.432 106.432 0 1 0-12.096 0l6.016 0.16z m0-60.832a45.568 45.568 0 1 1 0-91.168 45.568 45.568 0 0 1 0 91.168z"  horiz-adv-x="1024" />
      
      <glyph glyph-name="youhuiquan-8" unicode="&#59735;" d="M874.656 810.656a96 96 0 0 0 96-96v-220a32 32 0 0 0-21.248-30.144A85.312 85.312 0 0 1 893.088 384c0-36.512 22.88-68.608 56.32-80.512a32 32 0 0 0 21.248-30.144v-220a96 96 0 0 0-96-96H149.344a96 96 0 0 0-96 96v220a32 32 0 0 0 21.248 30.144A85.312 85.312 0 0 1 130.912 384a85.312 85.312 0 0 1-56.32 80.512 32 32 0 0 0-21.248 30.144V714.656a96 96 0 0 0 96 96zM603.2 353.632l-6.016-0.192a106.4 106.4 0 1 1 12.064 0l-6.048 0.192z m0-54.432a51.968 51.968 0 1 0 0-103.968 51.968 51.968 0 0 0 0 103.968z m48.608 255.04a30.4 30.4 0 0 1-21.536-8.96l-279.456-279.424-2.624-3.04a30.4 30.4 0 0 1 45.632-40.032l279.456 279.456 2.656 3.008a30.4 30.4 0 0 1-24.128 48.96zM420.8 627.2l-6.016-0.16a106.4 106.4 0 1 1 12.064 0L420.8 627.2z m0-60.832a45.568 45.568 0 1 0 0-91.168 45.568 45.568 0 0 0 0 91.168z"  horiz-adv-x="1024" />
      
      <glyph glyph-name="fangzi-1" unicode="&#59734;" d="M529.76 837.28l3.104-2.368 323.136-278.08 115.072-106.688a32 32 0 0 0-40.384-49.504l-3.104 2.56-52.928 49.056v-494.912a32 32 0 0 0-28.256-31.808l-3.744-0.192H181.344a32 32 0 0 0-31.808 28.256l-0.192 3.744V452.256L96.384 403.2a32 32 0 0 0-46.272 44.032l2.784 2.88 115.968 107.488 322.24 277.312a32 32 0 0 0 38.624 2.368z m-17.792-68.8l-299.904-258.176a31.84 31.84 0 0 0 1.056-5.248l0.224-3.712v-512h597.312v512a32 32 0 0 0 1.28 8.96l-299.968 258.176z m127.2-260.704a32 32 0 0 0 6.464-41.824l-2.368-3.232-62.944-75.52H640a32 32 0 0 0 3.744-63.776L640 323.2h-96.032v-64H640a32 32 0 0 0 3.744-63.776L640 195.2h-96.032l0.032-96a32 32 0 0 0-63.776-3.744L480 99.2l-0.032 96H384a32 32 0 0 0-3.744 63.776L384 259.2h95.968v64H384a32 32 0 0 0-3.744 63.776L384 387.2h59.68l-62.944 75.52a32 32 0 0 0 46.4 43.904l2.784-2.944L512 405.216l82.08 98.464a32 32 0 0 0 45.088 4.096z"  horiz-adv-x="1024" />
      
      <glyph glyph-name="fangzi-2" unicode="&#59733;" d="M529.76 837.28l3.104-2.368 323.136-278.08 115.072-106.688a32 32 0 0 0-40.384-49.504l-3.104 2.56-52.928 49.056v-494.912a32 32 0 0 0-28.256-31.808l-3.744-0.192H181.344a32 32 0 0 0-31.808 28.256l-0.192 3.744V452.256L96.384 403.2a32 32 0 0 0-46.272 44.032l2.784 2.88 115.968 107.488 322.24 277.312a32 32 0 0 0 38.624 2.368z m109.408-329.504a32 32 0 0 1-45.088-4.096L512 405.216l-82.08 98.464-2.752 2.944a32 32 0 0 1-46.4-43.904l62.88-75.52H384l-3.744-0.224A32 32 0 0 1 384 323.2h96v-64h-96l-3.744-0.224A32 32 0 0 1 384 195.2h96v-96l0.224-3.744A32 32 0 0 1 544 99.2v96h96l3.744 0.224A32 32 0 0 1 640 259.2h-96v64h96l3.744 0.224A32 32 0 0 1 640 387.2h-59.712l62.976 75.52 2.368 3.232a32 32 0 0 1-6.464 41.824z"  horiz-adv-x="1024" />
      
      <glyph glyph-name="youhuiquan-9" unicode="&#59728;" d="M874.656 810.656a96 96 0 0 0 96-96v-220a32 32 0 0 0-21.248-30.144A85.312 85.312 0 0 1 893.088 384c0-36.512 22.88-68.608 56.32-80.512a32 32 0 0 0 21.248-30.144v-220a96 96 0 0 0-96-96H149.344a96 96 0 0 0-96 96v220a32 32 0 0 0 21.248 30.144A85.312 85.312 0 0 1 130.912 384a85.312 85.312 0 0 1-56.32 80.512 32 32 0 0 0-21.248 30.144V714.656a96 96 0 0 0 96 96z m0-64H149.344a32 32 0 0 1-32-32v-199.424l3.552-1.984a149.504 149.504 0 0 0 73.856-122.208l0.16-7.04c0-54.272-29.056-103.04-74.016-129.28l-3.552-1.92v-199.456a32 32 0 0 1 28.256-31.808l3.744-0.192h725.312a32 32 0 0 1 32 32V252.8l-3.552 1.92a149.504 149.504 0 0 0-73.856 122.24L829.12 384c0 54.272 29.056 103.04 74.016 129.28l3.52 1.952 0.032 199.424a32 32 0 0 1-28.256 31.808l-3.744 0.192zM424.96 590.624l3.008-2.656L512 503.936l84.032 84.032a32 32 0 0 0 42.24 2.656l3.008-2.656a32 32 0 0 0 2.688-42.24l-2.688-3.008-73.344-73.376H640a32 32 0 0 0 3.744-63.808l-3.744-0.192h-96v-67.52l96-0.032a32 32 0 0 0 3.744-63.808l-3.744-0.192h-96v-92.48a32 32 0 0 0-63.776-3.712L480 181.344v92.48l-96-0.032a32 32 0 0 0-3.744 63.776l3.744 0.224h96v67.552h-96a32 32 0 0 0-3.744 63.776l3.744 0.224h72.064L382.72 542.72a32 32 0 0 0 42.24 47.904z"  horiz-adv-x="1024" />
      
      <glyph glyph-name="youhuiquan-10" unicode="&#59727;" d="M874.656 810.656a96 96 0 0 0 96-96v-220a32 32 0 0 0-21.248-30.144A85.312 85.312 0 0 1 893.088 384c0-36.512 22.88-68.608 56.32-80.512a32 32 0 0 0 21.248-30.144v-220a96 96 0 0 0-96-96H149.344a96 96 0 0 0-96 96v220a32 32 0 0 0 21.248 30.144A85.312 85.312 0 0 1 130.912 384a85.312 85.312 0 0 1-56.32 80.512 32 32 0 0 0-21.248 30.144V714.656a96 96 0 0 0 96 96zM424.96 590.624a32 32 0 0 1-42.24-47.904l73.344-73.376H384l-3.744-0.224A32 32 0 0 1 384 405.344h96v-67.52l-96-0.032-3.744-0.224A32 32 0 0 1 384 273.792h96v-92.48l0.224-3.712A32 32 0 0 1 544 181.344v92.48l96-0.032 3.744 0.192A32 32 0 0 1 640 337.792h-96v67.552h96l3.744 0.192A32 32 0 0 1 640 469.344h-72.064l73.344 73.376 2.688 3.008a32 32 0 0 1-2.688 42.24l-3.008 2.656a32 32 0 0 1-42.24-2.656L512 503.904l-84.032 84.064z"  horiz-adv-x="1024" />
      
      <glyph glyph-name="dianzan-1" unicode="&#59726;" d="M172.16 472.704l54.112-0.608V-16H172.16c-31.616 0-57.536 25.504-59.936 57.92l-0.192 4.928V409.824c0 33.088 24.416 60.16 55.456 62.688l4.672 0.192z m425.92 174.72c0-28.736-4.48-60.928-13.376-96.736l-3.52-13.6 239.104 1.6c27.296 0 53.184-12.736 70.624-34.72a98.88 98.88 0 0 0 20.448-72.512l-0.96-6.464-65.824-362.976c-7.872-43.392-42.944-75.264-84.64-77.856l-5.472-0.16H283.424V471.52l8.704-0.096c64 6.432 119.488 63.392 122.88 131.488l0.192 6.624V664.832c0 61.248 5.952 110.144 60.064 118.336l5.248 0.64 5.248 0.192c57.696 0.288 112.32-67.488 112.32-136.608zM487.168 720l-2.304-0.128-1.024-0.32c-2.88-1.536-4.48-9.184-4.64-48.544v-61.504c0-82.432-52-156.032-124.16-187.104l-7.648-3.072V48h407.04c11.616 0 22.432 8.544 26.304 21.728l0.864 3.68 65.824 362.976a35.072 35.072 0 0 1-6.656 27.84 26.88 26.88 0 0 1-16.96 10.24l-3.104 0.192-323.392-2.144 22.08 81.376c9.92 36.352 14.72 67.52 14.72 93.504 0 35.52-26.816 68.8-44.48 72.32l-2.464 0.32z"  horiz-adv-x="1024" />
      
      <glyph glyph-name="dianzan-2" unicode="&#59725;" d="M112 409.824v-362.976c0-34.72 26.912-62.848 60.16-62.848H226.24V472.096l-54.144 0.608c-33.216 0-60.128-28.16-60.128-62.88z m708.288 128.832l-239.104-1.6c11.2 41.344 16.896 78.016 16.896 110.336 0 73.312-61.44 145.12-122.816 135.776-54.112-8.192-60.064-57.088-60.064-118.336v-55.296c0-70.976-56.992-131.456-123.072-138.112l-8.704 0.096V-16h471.04c44.064 0 81.92 32.736 90.112 78.016L910.4 424.96a99.04 99.04 0 0 1-19.52 78.976 90.208 90.208 0 0 1-70.592 34.688z"  horiz-adv-x="1024" />
      
      <glyph glyph-name="vip-1" unicode="&#59724;" d="M723.584 773.216a77.44 77.44 0 0 0 56.96-24.64l170.912-185.504c26.112-28.32 25.536-71.168-0.288-97.728L552 12.864a53.344 53.344 0 0 0-80 0L73.856 464.224a71.456 71.456 0 0 0-1.312 98.816l170.944 185.504a77.44 77.44 0 0 0 56.96 24.64z m0-64H300.416a13.504 13.504 0 0 1-9.888-4.032l-170.912-185.472c-3.104-3.328-3.04-7.616 1.184-12.032L512 64.256 904.224 508.8c2.656 2.752 3.136 6.176 1.44 9.184l-1.28 1.728-170.912 185.472a13.504 13.504 0 0 1-9.92 4.032z m-19.648-221.44a32 32 0 0 0 5.12-41.984l-2.464-3.2-170.688-192a32 32 0 0 0-44.96-2.816l-2.88 2.848-170.656 192a32 32 0 0 0 44.992 45.344l2.88-2.848L512 320.064l146.752 165.056a32 32 0 0 0 45.184 2.688z"  horiz-adv-x="1024" />
      
      <glyph glyph-name="vip-2" unicode="&#59729;" d="M723.584 773.216a77.44 77.44 0 0 0 56.96-24.64l170.912-185.504c26.112-28.32 25.536-71.168-0.288-97.728L552 12.864a53.344 53.344 0 0 0-80 0L70.016 468.48a71.36 71.36 0 0 0 2.528 94.56l170.944 185.504a77.44 77.44 0 0 0 56.96 24.64z m-19.648-285.44a32 32 0 0 1-45.184-2.656L512 320.064l-146.752 165.056-2.88 2.88a32 32 0 0 1-44.96-45.376l170.688-192 2.88-2.88a32 32 0 0 1 44.928 2.88l170.688 192 2.464 3.168a32 32 0 0 1-5.12 42.016z"  horiz-adv-x="1024" />
      
      <glyph glyph-name="vip-3" unicode="&#59722;" d="M512 842.656c253.312 0 458.656-205.344 458.656-458.656S765.312-74.656 512-74.656 53.344 130.688 53.344 384 258.688 842.656 512 842.656z m0-64C294.016 778.656 117.344 601.984 117.344 384S294.016-10.656 512-10.656 906.656 166.016 906.656 384 729.984 778.656 512 778.656z m-26.048-226.72a32 32 0 0 0 52.096 0l90.72-127.072 103.584 51.744a32 32 0 0 0 46.112-24.928l0.192-3.68v-213.344a32 32 0 0 0-32-32H277.344a32 32 0 0 0-32 32V448a32 32 0 0 0 46.304 28.608l103.52-51.744zM512 478.304l-80.608-112.896a32 32 0 0 0-40.32-10.016l-81.728 40.832v-129.536h405.312v129.536l-81.632-40.832a32 32 0 0 0-37.92 6.976l-2.432 3.04L512 478.304z"  horiz-adv-x="1024" />
      
      <glyph glyph-name="vip-4" unicode="&#59721;" d="M512 842.656c253.312 0 458.656-205.344 458.656-458.656S765.312-74.656 512-74.656 53.344 130.688 53.344 384 258.688 842.656 512 842.656z m-26.048-290.72l-90.784-127.04-103.52 51.712A32 32 0 0 1 245.344 448v-213.344a32 32 0 0 1 32-32h469.312a32 32 0 0 1 32 32V448l-0.192 3.68a32 32 0 0 1-46.08 24.96l-103.616-51.776-90.72 127.04a32 32 0 0 1-52.096 0zM512 478.272l80.64-112.864 2.464-3.04a32 32 0 0 1 37.92-6.976l81.632 40.832v-129.536H309.312v129.536l81.696-40.832a32 32 0 0 1 40.352 10.016L512 478.272z"  horiz-adv-x="1024" />
      
      <glyph glyph-name="vip-5" unicode="&#59720;" d="M512 800a96 96 0 0 0 45.952-180.32l117.664-235.392L803.104 448a96 96 0 1 0 96.672-28.672l-122.336-428.128a32 32 0 0 0-30.784-23.2H277.344a32 32 0 0 0-30.784 23.2L124.192 419.328A96.032 96.032 0 0 0 149.344 608a96 96 0 0 0 71.552-160l127.456-63.712 117.664 235.424A96 96 0 0 0 512 800z m0-231.552l-120.704-241.44a32 32 0 0 0-42.944-14.304L200.064 386.88 301.472 32h421.024l101.408 354.848-148.256-74.144a32 32 0 0 0-41.088 11.072l-1.856 3.232L512 568.448zM149.344 544a32 32 0 0 1 0-64l-0.736 0.096h1.76A32 32 0 0 1 149.344 544z m725.312 0a32 32 0 0 1 0-64l-1.024 0.064h1.76A32 32 0 0 1 874.656 544zM512 736a32 32 0 1 1 0-64 32 32 0 0 1 0 64z"  horiz-adv-x="1024" />
      
      <glyph glyph-name="vip-6" unicode="&#59719;" d="M512 800a96 96 0 0 0 45.952-180.32l117.664-235.392L803.104 448a96 96 0 1 0 96.672-28.672l-122.336-428.128a32 32 0 0 0-30.784-23.2H277.344a32 32 0 0 0-30.784 23.2L124.192 419.328A96.032 96.032 0 0 0 149.344 608a96 96 0 0 0 71.552-160l127.456-63.712 117.664 235.424A96 96 0 0 0 512 800z"  horiz-adv-x="1024" />
      
      <glyph glyph-name="vip-7" unicode="&#59718;" d="M458.688 737.76a65.504 65.504 0 0 0 106.624 0l180.128-252.224 137.28 68.608a65.504 65.504 0 0 0 85.44-24.8l2.464-4.48c6.56-13.12 8.512-28.064 5.568-42.432l-97.856-478.176a32 32 0 0 0-31.36-25.6H177.024a32 32 0 0 0-31.36 25.6L47.84 482.432a65.504 65.504 0 0 0 93.44 71.712l137.28-68.608z m54.176-36.832a1.504 1.504 0 0 1-2.08-0.352l-196.064-274.496A32 32 0 0 0 274.368 416L112.64 496.896a1.504 1.504 0 0 1-2.144-1.632l92.576-452.576h617.824l92.608 452.576-0.128 0.96a1.504 1.504 0 0 1-2.016 0.672l-161.728-80.864a32 32 0 0 0-40.32 10.048l-196.096 274.496zM512 403.2a121.344 121.344 0 1 0 0-242.656 121.344 121.344 0 0 0 0 242.656z m0-64a57.344 57.344 0 1 1 0-114.656 57.344 57.344 0 0 1 0 114.656z"  horiz-adv-x="1024" />
      
      <glyph glyph-name="vip-8" unicode="&#59723;" d="M458.688 737.76a65.504 65.504 0 0 0 106.624 0l180.128-252.224 137.28 68.608a65.504 65.504 0 0 0 85.44-24.8l2.464-4.48c6.56-13.12 8.512-28.064 5.568-42.432l-97.856-478.176a32 32 0 0 0-31.36-25.6H177.024a32 32 0 0 0-31.36 25.6L47.84 482.432a65.504 65.504 0 0 0 93.44 71.712l137.28-68.608zM512 403.2a121.344 121.344 0 1 1 0-242.656 121.344 121.344 0 0 1 0 242.656z m0-64a57.344 57.344 0 1 0 0-114.656 57.344 57.344 0 0 0 0 114.656z"  horiz-adv-x="1024" />
      
      <glyph glyph-name="jingshi-1" unicode="&#59716;" d="M486.496 772.096a29.472 29.472 0 0 0 51.008 0l432.288-746.656a29.472 29.472 0 0 0-25.504-44.256H79.68a29.472 29.472 0 0 0-25.504 44.256z m25.472-73.568L130.88 40.16H893.12L512 698.528zM512 197.344c15.104 0 27.584-11.392 29.28-26.048l0.192-3.424v-19.648a29.472 29.472 0 0 0-58.752-3.456l-0.192 3.456v19.648c0 16.256 13.184 29.44 29.472 29.44z m0 314.368c15.104 0 27.552-11.36 29.28-26.016l0.192-3.424 0.16-196.48a29.472 29.472 0 0 0-58.752-3.52l-0.192 3.456-0.16 196.48c0 16.288 13.184 29.472 29.44 29.504z"  horiz-adv-x="1024" />
      
      <glyph glyph-name="jingshi-2" unicode="&#59717;" d="M486.496 772.096a29.472 29.472 0 0 0 51.008 0l432.288-746.656a29.472 29.472 0 0 0-25.504-44.256H79.68a29.472 29.472 0 0 0-25.504 44.256zM512 197.344a29.472 29.472 0 0 1-29.472-29.472v-19.648l0.192-3.456a29.472 29.472 0 0 1 58.752 3.456v19.648l-0.192 3.424a29.472 29.472 0 0 1-29.28 26.048z m0 314.368a29.472 29.472 0 0 1-29.472-29.504l0.16-196.48 0.192-3.424a29.472 29.472 0 0 1 58.752 3.488l-0.16 196.48-0.192 3.424a29.472 29.472 0 0 1-29.312 26.016z"  horiz-adv-x="1024" />
      
      <glyph glyph-name="anquan-1" unicode="&#59714;" d="M503.552 834.944a30.816 30.816 0 0 0 17.28 0L890.56 726.912c13.152-3.84 22.176-15.904 22.176-29.6v-221.504c0-246.112-157.472-464.608-390.976-542.4a30.816 30.816 0 0 0-19.488 0A571.808 571.808 0 0 0 111.232 475.904v221.44c0 13.664 9.024 25.728 22.176 29.568z m8.672-61.696L172.864 674.208v-198.304c0-215.904 135.84-408 338.4-480.352l0.768-0.256 11.2 4.096a510.08 510.08 0 0 1 327.776 465.28l0.128 11.136v198.4l-338.88 99.04z m227.104-233.856a30.848 30.848 0 0 0 2.56-40.704l-2.56-2.88-246.624-246.656a30.848 30.848 0 0 0-40.704-2.56l-2.88 2.56-143.904 143.872a30.816 30.816 0 0 0 40.704 46.176l2.88-2.56 122.08-122.08 224.864 224.832a30.816 30.816 0 0 0 43.584 0z"  horiz-adv-x="1024" />
      
      <glyph glyph-name="anquan-2" unicode="&#59713;" d="M503.552 834.944a30.816 30.816 0 0 0 17.28 0L890.56 726.912c13.152-3.84 22.176-15.904 22.176-29.6v-221.504c0-246.112-157.472-464.608-390.976-542.4a30.816 30.816 0 0 0-19.488 0A571.808 571.808 0 0 0 111.232 475.904v221.44c0 13.664 9.024 25.728 22.176 29.568z m235.776-295.552a30.816 30.816 0 0 1-43.584 0l-224.864-224.832-122.048 122.08-2.912 2.56a30.848 30.848 0 0 1-40.704-46.176l143.872-143.872 2.912-2.56a30.848 30.848 0 0 1 40.704 2.56l246.624 246.656 2.56 2.88a30.848 30.848 0 0 1-2.56 40.704z"  horiz-adv-x="1024" />
      
      <glyph glyph-name="anquan-3" unicode="&#59712;" d="M503.008 835.936a32 32 0 0 0 18.336 0l369.76-110.72a32 32 0 0 0 22.816-30.624v-227.04c0-248.096-153.44-453.824-391.52-535.104a32 32 0 0 0-20.672 0C263.584 13.728 110.08 219.488 110.08 467.648V694.592a32 32 0 0 0 22.816 30.656z m9.184-64.032L174.08 670.784v-203.136c0-216.448 130.976-395.744 337.376-470.784l0.576-0.224 11.392 4.256c196.544 75.936 321.952 247.776 326.4 455.296l0.096 11.36V670.72L512.192 771.904zM512 647.712c74.592 0 134.752-61.664 134.752-137.312a138.272 138.272 0 0 0-40.32-98.016 201.056 201.056 0 0 0 101.984-175.84 32 32 0 1 0-64 0c0 75.584-59.456 136.512-132.416 136.512s-132.416-60.928-132.416-136.512a32 32 0 1 0-64 0 201.184 201.184 0 0 0 102.016 175.904 138.016 138.016 0 0 0-40.352 97.92c0 75.68 60.16 137.344 134.752 137.344z m0-64c-38.912 0-70.752-32.64-70.752-73.312s31.84-73.344 70.752-73.344c38.912 0 70.752 32.64 70.752 73.344 0 40.64-31.84 73.28-70.752 73.28z"  horiz-adv-x="1024" />
      
      <glyph glyph-name="anquan-4" unicode="&#59711;" d="M503.008 835.936a32 32 0 0 0 18.336 0l369.76-110.72a32 32 0 0 0 22.816-30.624v-227.04c0-248.096-153.44-453.824-391.52-535.104a32 32 0 0 0-20.672 0C263.584 13.728 110.08 219.488 110.08 467.648V694.592a32 32 0 0 0 22.816 30.656zM512 647.712c-74.592 0-134.752-61.664-134.752-137.312 0-38.336 15.424-73.056 40.32-98.016a201.056 201.056 0 0 1-101.984-175.84 32 32 0 1 1 64 0c0 75.584 59.456 136.512 132.416 136.512s132.416-60.928 132.416-136.512a32 32 0 1 1 64 0 201.184 201.184 0 0 1-102.016 175.904 138.016 138.016 0 0 1 40.352 97.92c0 75.68-60.16 137.344-134.752 137.344z m0-64c38.912 0 70.752-32.64 70.752-73.312s-31.84-73.344-70.752-73.344c-38.912 0-70.752 32.64-70.752 73.344 0 40.64 31.84 73.28 70.752 73.28z"  horiz-adv-x="1024" />
      
      <glyph glyph-name="anquan-5" unicode="&#59715;" d="M503.2 836a32 32 0 0 0 17.92 0L890.88 728a32 32 0 0 0 23.04-30.72v-221.504a572.8 572.8 0 0 0-391.744-543.424 32 32 0 0 0-20.224 0A572.896 572.896 0 0 0 110.08 475.904V697.28a32 32 0 0 0 23.04 30.72z m8.96-64.032L174.08 673.28v-197.376c0-215.36 135.488-406.976 337.536-479.2l0.416-0.096 10.784 3.936a508.8 508.8 0 0 1 326.944 464.128l0.096 11.104V673.312L512.16 771.968z m-1.184-180.256a32 32 0 0 0 31.776-28.256l0.224-3.744v-132.384h132.384a32 32 0 0 0 3.744-63.808l-3.744-0.192h-132.384v-132.416a32 32 0 0 0-63.808-3.744l-0.192 3.744v132.416H346.56a32 32 0 0 0-3.712 63.776l3.712 0.224h132.416v132.384a32 32 0 0 0 32 32z"  horiz-adv-x="1024" />
      
      <glyph glyph-name="anquan-6" unicode="&#59709;" d="M503.2 836a32 32 0 0 0 17.92 0L890.88 728a32 32 0 0 0 23.04-30.72v-221.504a572.8 572.8 0 0 0-391.744-543.424 32 32 0 0 0-20.224 0A572.896 572.896 0 0 0 110.08 475.904V697.28a32 32 0 0 0 23.04 30.72z m7.776-244.288a32 32 0 0 1-32-32v-132.384H346.56l-3.712-0.224a32 32 0 0 1 3.712-63.776h132.416v-132.416l0.192-3.744a32 32 0 0 1 63.808 3.744v132.416h132.384l3.744 0.192a32 32 0 0 1-3.744 63.808h-132.384v132.384l-0.224 3.744a32 32 0 0 1-31.776 28.256z"  horiz-adv-x="1024" />
      
      <glyph glyph-name="shu-1" unicode="&#59702;" d="M336.448 768a207.392 207.392 0 0 0 175.584-96.8 207.264 207.264 0 0 0 168.064 96.64L687.552 768h241.376a32 32 0 0 0 31.776-28.256l0.224-3.744v-636.352a32 32 0 0 0-28.288-31.776l-3.712-0.224h-285.28c-53.12 0-96.544-41.6-99.52-93.984L544-32c0-19.136-12.864-29.664-27.04-31.68l-3.296-0.288h-3.328c-14.304 0.64-28.192 9.92-30.112 27.712L480-32l-0.16 5.664a99.68 99.68 0 0 1-93.856 93.824l-5.632 0.16H95.04a32 32 0 0 0-31.776 28.288l-0.224 3.712V736a32 32 0 0 0 28.288 31.776L95.04 768h241.376z m0-64H127.072v-572.32h253.28a162.88 162.88 0 0 0 92.256-28.48l6.464-4.672 0.896-0.704L480 560.448a143.552 143.552 0 0 1-129.92 142.912l-6.88 0.48-6.72 0.16z m560.448 0h-209.344a143.552 143.552 0 0 1-143.392-136.8l-0.16-6.72v-462.624l0.96 0.672a162.816 162.816 0 0 0 83.232 32.416l8.544 0.576 6.912 0.128 253.248 0.032V704zM387.712 328.48a25.6 25.6 0 0 0 3.2-51.008l-3.2-0.192h-160a25.6 25.6 0 0 0-3.2 51.008l3.2 0.192h160z m409.792 0a25.6 25.6 0 0 0 3.2-51.008l-3.2-0.192h-160a25.6 25.6 0 0 0-3.2 51.008l3.2 0.192h160z m-409.792 192a25.6 25.6 0 0 0 3.2-51.008l-3.2-0.192h-160a25.6 25.6 0 0 0-3.2 51.008l3.2 0.192h160z m409.792 0a25.6 25.6 0 0 0 3.2-51.008l-3.2-0.192h-160a25.6 25.6 0 0 0-3.2 51.008l3.2 0.192h160z"  horiz-adv-x="1024" />
      
      <glyph glyph-name="shu-2" unicode="&#59707;" d="M336.448 768a207.392 207.392 0 0 0 175.584-96.8 207.264 207.264 0 0 0 167.04 96.64L687.52 768h241.376a32 32 0 0 0 31.776-28.256l0.224-3.744v-636.352a32 32 0 0 0-28.288-31.776l-3.712-0.224h-285.28A99.648 99.648 0 0 1 544-32c0-19.136-12.864-29.664-27.04-31.68l-3.296-0.288h-3.328c-14.304 0.64-28.192 9.92-30.112 27.712L480-32l-0.16 5.664a99.68 99.68 0 0 1-93.856 93.824l-5.632 0.16H95.04a32 32 0 0 0-31.776 28.288l-0.224 3.712V736a32 32 0 0 0 28.288 31.776L95.04 768h241.376z m51.264-439.52h-160l-3.2-0.192a25.6 25.6 0 0 1 3.2-51.008h160l3.2 0.192a25.6 25.6 0 0 1-3.2 51.008z m409.792 0h-160l-3.2-0.192a25.6 25.6 0 0 1 3.2-51.008h160l3.2 0.192a25.6 25.6 0 0 1-3.2 51.008z m-409.792 192h-160l-3.2-0.192a25.6 25.6 0 0 1 3.2-51.008h160l3.2 0.192a25.6 25.6 0 0 1-3.2 51.008z m409.792 0h-160l-3.2-0.192a25.6 25.6 0 0 1 3.2-51.008h160l3.2 0.192a25.6 25.6 0 0 1-3.2 51.008z"  horiz-adv-x="1024" />
      
      <glyph glyph-name="jingshi-3" unicode="&#59706;" d="M503.328 632.544a255.424 255.424 0 0 0 255.296-247.456l0.128-7.968v-354.016h166.56a33.312 33.312 0 0 0 3.648-66.464l-3.648-0.192H103.552a33.312 33.312 0 0 0-3.648 66.432l3.648 0.192h144.32l0.032 354.048a255.424 255.424 0 0 0 247.456 255.296l7.968 0.128z m0-66.624a188.8 188.8 0 0 1-188.672-181.696l-0.128-7.104v-354.016h377.568V377.12a188.8 188.8 0 0 1-174.528 188.256l-7.168 0.416-7.072 0.128z m78.688-203.008l-61.6-78.4h83.968l-134.4-145.6 28.032 106.4h-78.4l61.6 117.6h100.8z m358.752 92.672a33.312 33.312 0 0 0-23.488-37.76l-3.52-0.832-65.632-11.584a33.312 33.312 0 0 0-15.104 64.8l3.52 0.832 65.632 11.584c18.112 3.2 35.392-8.928 38.592-27.04z m-839.904 27.456l3.616-0.416 65.6-11.584a33.312 33.312 0 0 0-7.968-66.048l-3.584 0.416-65.6 11.584a33.312 33.312 0 0 0 7.936 66.048z m688 235.68c13.088-10.976 15.616-29.888 6.4-43.84l-2.304-3.104-42.816-51.04a33.312 33.312 0 0 0-53.376 39.712l2.336 3.136 42.816 51.04a33.312 33.312 0 0 0 46.944 4.096zM262.08 717.44l2.656-2.816 42.816-51.04A33.312 33.312 0 0 0 259.2 617.92l-2.688 2.816-42.816 51.072A33.312 33.312 0 0 0 262.08 717.44z m241.248 105.216c17.184 0 31.296-12.992 33.12-29.696l0.192-3.616v-66.656a33.312 33.312 0 0 0-66.432-3.616l-0.192 3.616V789.344c0 18.4 14.912 33.28 33.28 33.28z"  horiz-adv-x="1024" />
      
      <glyph glyph-name="jingshi-4" unicode="&#59705;" d="M503.328 632.544a255.424 255.424 0 0 0 255.296-247.456l0.128-7.968v-354.016h166.56a33.312 33.312 0 0 0 3.648-66.464l-3.648-0.192H103.552a33.312 33.312 0 0 0-3.648 66.432l3.648 0.192h144.32l0.032 354.048a255.424 255.424 0 0 0 247.456 255.296l7.968 0.128z m78.688-269.632h-100.8l-61.6-117.6h78.4l-28.032-106.4 134.4 145.6h-84l61.6 78.4z m358.752 92.672a33.312 33.312 0 0 0-23.488-37.76l-3.52-0.832-65.632-11.584a33.312 33.312 0 0 0-15.104 64.8l3.52 0.832 65.632 11.584c18.112 3.2 35.392-8.928 38.592-27.04z m-839.904 27.456l3.616-0.416 65.6-11.584a33.312 33.312 0 0 0-7.968-66.048l-3.584 0.416-65.6 11.584a33.312 33.312 0 0 0 7.936 66.048z m688 235.68c13.088-10.976 15.616-29.888 6.4-43.84l-2.304-3.104-42.816-51.04a33.312 33.312 0 0 0-53.376 39.712l2.336 3.136 42.816 51.04a33.312 33.312 0 0 0 46.944 4.096zM262.08 717.44l2.656-2.816 42.816-51.04A33.312 33.312 0 0 0 259.2 617.92l-2.688 2.816-42.816 51.072A33.312 33.312 0 0 0 262.08 717.44z m241.248 105.216c17.184 0 31.296-12.992 33.12-29.696l0.192-3.616v-66.656a33.312 33.312 0 0 0-66.432-3.616l-0.192 3.616V789.344c0 18.4 14.912 33.28 33.28 33.28z"  horiz-adv-x="1024" />
      
      <glyph glyph-name="jingshi-5" unicode="&#59704;" d="M938.656 757.344a32 32 0 0 0 32-32v-640a32 32 0 0 0-32-32h-306.752l-97.28-97.28a32 32 0 0 0-42.24-2.688l-3.008 2.656-97.28 97.312H85.312a32 32 0 0 0-31.808 28.256l-0.192 3.744v640a32 32 0 0 0 32 32z m-32-64H117.28v-576h288a32 32 0 0 0 19.488-6.592l3.168-2.784 84-84.032 84.064 84.032a32 32 0 0 0 18.432 9.088l4.192 0.288h288v576z m-394.656-256a32 32 0 0 0 31.776-28.288l0.224-3.712v-192a32 32 0 0 0-63.776-3.744L480 213.344v192a32 32 0 0 0 32 32z m0 149.312a32 32 0 0 0 31.776-28.256l0.224-3.744v-21.312a32 32 0 0 0-63.776-3.744L480 533.344v21.312a32 32 0 0 0 32 32z"  horiz-adv-x="1024" />
      
      <glyph glyph-name="jingshi-6" unicode="&#59703;" d="M938.656 757.344a32 32 0 0 0 32-32v-640a32 32 0 0 0-32-32h-306.752l-97.28-97.28a32 32 0 0 0-42.24-2.688l-3.008 2.656-97.28 97.312H85.312a32 32 0 0 0-31.808 28.256l-0.192 3.744v640a32 32 0 0 0 32 32zM512 437.344a32 32 0 0 1-32-32v-192l0.224-3.744A32 32 0 0 1 544 213.344v192l-0.224 3.712a32 32 0 0 1-31.776 28.288z m0 149.312a32 32 0 0 1-32-32v-21.312l0.224-3.744A32 32 0 0 1 544 533.344v21.312l-0.224 3.744A32 32 0 0 1 512 586.656z"  horiz-adv-x="1024" />
      
      <glyph glyph-name="shu-3" unicode="&#59700;" d="M746.656 821.344a32 32 0 0 0 32-32v-554.688a32 32 0 0 0-28.256-31.776l-3.744-0.224H277.344a96.224 96.224 0 0 1-94.56-79.36l-0.8-5.44a96 96 0 0 1 89.728-107.04l5.632-0.16 565.312 0.032v736a32 32 0 0 0 28.288 31.776l3.712 0.192a32 32 0 0 0 31.808-28.256l0.192-3.744v-768a32 32 0 0 0-28.256-31.776l-3.744-0.224H277.344a160 160 0 0 0-160 160V661.344a160 160 0 0 0 160 160z m-21.312-682.688a32 32 0 0 0 3.712-63.776l-3.712-0.224H298.656a32 32 0 0 0-3.712 63.808l3.712 0.192h426.688z m-10.688 618.688H277.344a96 96 0 0 1-96-96l-0.032-426.688c9.6 7.2 20.032 13.376 31.104 18.304 0.224 0.032 0.416 0.128 0.608 0.224 9.856 4.352 20.256 7.744 31.04 10.016l1.792 0.352c2.176 0.448 4.32 0.832 6.528 1.184l1.312 0.192a150.016 150.016 0 0 0 16.704 1.6l-8.32-0.576c2.752 0.256 5.536 0.448 8.32 0.576l6.944 0.128 437.312 0.032V757.344z"  horiz-adv-x="1024" />
      
      <glyph glyph-name="shu-4" unicode="&#59699;" d="M746.656 821.344a32 32 0 0 0 32-32v-554.688a32 32 0 0 0-28.256-31.776l-3.744-0.224H277.344a96.224 96.224 0 0 1-94.56-79.36l-0.8-5.44a96 96 0 0 1 89.728-107.04l5.632-0.16 565.312 0.032v736a32 32 0 0 0 28.288 31.776l3.712 0.192a32 32 0 0 0 31.808-28.256l0.192-3.744v-768a32 32 0 0 0-28.256-31.776l-3.744-0.224H277.344a160 160 0 0 0-160 160V661.344a160 160 0 0 0 160 160z m-21.312-682.688a32 32 0 0 0 3.712-63.776l-3.712-0.224H298.656a32 32 0 0 0-3.712 63.808l3.712 0.192h426.688z"  horiz-adv-x="1024" />
      
      <glyph glyph-name="shu-5" unicode="&#59698;" d="M885.344-42.656a32 32 0 0 0-32-32H256a117.344 117.344 0 0 0-117.344 117.312v640c0 88.864 75.904 160 168.544 160h546.144a32 32 0 0 0 32-32z m-64 138.656H299.072c-28.032-0.128-48-0.96-62.208-3.52a53.376 53.376 0 0 1-34.048-45.216l-0.192-4.608c0-29.44 23.904-53.312 53.344-53.312h565.312V96z m0 682.688H307.2c-58.176 0-104.544-43.488-104.544-96v-534.432l1.728 0.544c1.408 0.448 2.848 0.896 4.288 1.28 14.496 6.4 30.496 9.92 47.328 9.92h565.312V778.688z"  horiz-adv-x="1024" />
      
      <glyph glyph-name="shu-6" unicode="&#59697;" d="M885.344-42.656a32 32 0 0 0-32-32H256a117.344 117.344 0 0 0-117.344 117.312v640c0 88.864 75.904 160 168.544 160h546.144a32 32 0 0 0 32-32z m-64 138.656H299.072c-28.032-0.128-48-0.96-62.208-3.52a53.376 53.376 0 0 1-34.048-45.216l-0.192-4.608c0-29.44 23.904-53.312 53.344-53.312h565.312V96z"  horiz-adv-x="1024" />
      
      <glyph glyph-name="shu-7" unicode="&#59701;" d="M810.656 837.344a74.656 74.656 0 0 0 74.688-74.688v-768a74.656 74.656 0 0 0-74.688-74.656H213.344a74.656 74.656 0 0 0-74.688 74.656v768a74.656 74.656 0 0 0 74.688 74.688zM416 773.344H213.344a10.656 10.656 0 0 1-10.688-10.688v-768c0-5.888 4.8-10.656 10.688-10.656h597.312c5.888 0 10.688 4.8 10.688 10.656v768a10.656 10.656 0 0 1-10.688 10.688H736l0.032-352c0-27.616-32.192-41.728-52.448-24.64l-2.688 2.496L576 508.864l-104.864-109.664c-19.104-19.936-52.096-7.872-54.944 18.464L416 421.344v352z m256 0h-192v-272.256l72.896 76.16a32 32 0 0 0 43.2 2.816l3.072-2.784L672 501.088V773.344z"  horiz-adv-x="1024" />
      
      <glyph glyph-name="shu-8" unicode="&#59696;" d="M810.656 837.344c39.52 0 71.872-30.72 74.496-69.568l0.192-5.12v-768c0-39.52-30.72-71.872-69.568-74.496l-5.12-0.16H213.344a74.656 74.656 0 0 0-74.496 69.568l-0.192 5.12v768c0 39.488 30.72 71.84 69.568 74.464l5.12 0.192h597.312z m-74.688-64h-64v-272.256l-72.832 76.16-3.072 2.816a32 32 0 0 1-43.2-2.784L480 501.088V773.344h-64v-352l0.192-3.68c2.848-26.336 35.84-38.4 54.944-18.464L576 508.864l104.864-109.664c19.968-20.832 55.136-6.72 55.136 22.144v352z"  horiz-adv-x="1024" />
      
      <glyph glyph-name="shoucang-1" unicode="&#59695;" d="M810.656 842.656A74.656 74.656 0 0 0 885.344 768v-810.656a32 32 0 0 0-46.72-28.448L512 97.792 185.376-71.104a32 32 0 0 0-46.496 24.736l-0.224 3.712V768a74.656 74.656 0 0 0 74.688 74.656z m0-64H213.344A10.656 10.656 0 0 1 202.656 768v-758.08l294.656 152.32a32 32 0 0 0 25.344 1.76l4.032-1.76 294.624-152.32V768a10.656 10.656 0 0 1-8.48 10.464l-2.176 0.192zM510.912 630.4a32 32 0 0 0 31.808-28.256l0.192-3.744v-96h96a32 32 0 0 0 3.744-63.776l-3.744-0.224h-96v-96a32 32 0 0 0-63.776-3.712l-0.224 3.712v96h-96a32 32 0 0 0-3.712 63.776l3.712 0.224h96v96a32 32 0 0 0 32 32z"  horiz-adv-x="1024" />
      
      <glyph glyph-name="shoucang-2" unicode="&#59692;" d="M810.656 842.656A74.656 74.656 0 0 0 885.344 768v-810.656a32 32 0 0 0-46.72-28.448L512 97.792 185.376-71.104a32 32 0 0 0-46.496 24.736l-0.224 3.712V768a74.656 74.656 0 0 0 74.688 74.656zM510.912 630.4a32 32 0 0 1-32-32v-96h-96l-3.712-0.224a32 32 0 0 1 3.712-63.776h96v-96l0.224-3.712a32 32 0 0 1 63.776 3.712v96h96l3.744 0.224a32 32 0 0 1-3.744 63.776h-96v96l-0.192 3.744a32 32 0 0 1-31.808 28.256z"  horiz-adv-x="1024" />
      
      <glyph glyph-name="tupian-1" unicode="&#59691;" d="M886.016 768.992a76.992 76.992 0 0 0 76.992-76.992v-616a76.992 76.992 0 0 0-77.024-76.992H138.016a76.992 76.992 0 0 0-76.992 76.992V692a76.992 76.992 0 0 0 77.024 76.992zM560.736 404.864l-111.68-130.336a32.992 32.992 0 0 0-45.664-4.288l-86.944 69.568-189.44-189.44v-74.368c0-4.544 2.752-8.48 6.72-10.144l2.048-0.64 2.24-0.224h748c6.08 0 10.976 4.928 10.976 11.008v71.712l-336.256 257.152z m325.28 298.144H138.016a11.008 11.008 0 0 1-11.008-11.008v-448.32l163.648 163.648c10.88 10.88 27.712 12.704 40.576 4.8l3.392-2.368 85.088-68.032 111.232 129.76c11.392 13.28 31.2 15.36 45.12 4.736l320.896-245.44 0.032 461.216a11.008 11.008 0 0 1-8.768 10.784l-2.24 0.224z m-583.04-88a66.016 66.016 0 1 0 0-132 66.016 66.016 0 0 0 0 132z"  horiz-adv-x="1024" />
      
      <glyph glyph-name="tupian-2" unicode="&#59690;" d="M886.016 768.992a76.992 76.992 0 0 0 76.992-76.992v-616a76.992 76.992 0 0 0-77.024-76.992H138.016a76.992 76.992 0 0 0-76.992 76.992V692a76.992 76.992 0 0 0 77.024 76.992z m-313.28-290.56a32.992 32.992 0 0 1-41.76-6.944l-111.232-129.76-85.12 68.032-3.392 2.4a32.992 32.992 0 0 1-40.544-4.8l-163.68-163.712v-93.312l189.44 189.472 86.944-69.568 3.328-2.336c13.632-8.416 31.68-5.856 42.336 6.624l111.68 130.336 336.288-257.152v83.072l-320.96 245.44zM303.008 615.04a66.016 66.016 0 1 1 0-132 66.016 66.016 0 0 1 0 132z"  horiz-adv-x="1024" />
      
      <glyph glyph-name="xiangji-1" unicode="&#59689;" d="M640 800a32 32 0 0 0 26.624-14.24l1.984-3.456L723.776 672h150.88a96 96 0 0 0 95.84-90.368l0.16-5.632v-512a96 96 0 0 0-90.336-95.84l-5.664-0.16H149.344a96 96 0 0 0-95.84 90.368L53.344 64V576A96 96 0 0 0 143.68 671.84L149.344 672H300.16l55.2 110.304a32 32 0 0 0 24.64 17.44L384 800h256z m234.656-192H149.344a32 32 0 0 1-31.808-28.256L117.344 576v-512a32 32 0 0 1 28.256-31.776l3.744-0.224h725.312a32 32 0 0 1 31.808 28.256l0.192 3.744V576a32 32 0 0 1-32 32zM512 522.656a202.656 202.656 0 1 0 0-405.312 202.656 202.656 0 0 0 0 405.312z m0-64a138.656 138.656 0 1 1 0-277.312 138.656 138.656 0 0 1 0 277.312zM620.192 736h-216.416l-32-64h280.416l-32 64z"  horiz-adv-x="1024" />
      
      <glyph glyph-name="xiangji-2" unicode="&#59694;" d="M640 800a32 32 0 0 0 28.608-17.696L723.776 672h150.88a96 96 0 0 0 95.84-90.368l0.16-5.632v-512a96 96 0 0 0-90.336-95.84l-5.664-0.16H149.344a96 96 0 0 0-95.84 90.368L53.344 64V576A96 96 0 0 0 143.68 671.84L149.344 672H300.16l55.2 110.304a32 32 0 0 0 24.64 17.44L384 800z m-128-277.344a202.656 202.656 0 1 1 0-405.312 202.656 202.656 0 0 1 0 405.312z m0-64a138.656 138.656 0 1 0 0-277.312 138.656 138.656 0 0 0 0 277.312zM620.192 736h-216.416l-32-64h280.416l-32 64z"  horiz-adv-x="1024" />
      
      <glyph glyph-name="gengduo-1" unicode="&#59688;" d="M198.624 197.344a112 112 0 1 1 0-224 112 112 0 0 1 0 224z m0-61.12a50.88 50.88 0 1 0 0-101.792 50.88 50.88 0 0 0 0 101.824z m0 658.432a112 112 0 1 1 0-224 112 112 0 0 1 0 224z m0-61.088a50.88 50.88 0 1 0 0-101.824 50.88 50.88 0 0 0 0 101.824z m0-237.568a112 112 0 1 1 0-224 112 112 0 0 1 0 224z m0-61.12a50.88 50.88 0 1 0 0-101.76 50.88 50.88 0 0 0 0 101.76z m706.752-18.88a32 32 0 0 0 3.712-63.776l-3.712-0.224H436.032a32 32 0 0 0-3.744 63.776l3.744 0.224h469.344z m0-298.656a32 32 0 0 0 3.712-63.808l-3.712-0.192H436.032a32 32 0 0 0-3.744 63.776l3.744 0.224h469.344z m0 597.312a32 32 0 0 0 3.712-63.776l-3.712-0.224H436.032a32 32 0 0 0-3.744 63.808l3.744 0.192h469.344z"  horiz-adv-x="1024" />
      
      <glyph glyph-name="gengduo-2" unicode="&#59685;" d="M198.624 197.344a112 112 0 1 1 0-224 112 112 0 0 1 0 224z m0 597.312a112 112 0 1 1 0-224 112 112 0 0 1 0 224z m0-298.656a112 112 0 1 1 0-224 112 112 0 0 1 0 224zM905.376 416a32 32 0 0 0 3.712-63.776l-3.712-0.224H436.032a32 32 0 0 0-3.744 63.776l3.744 0.224h469.344z m0-298.656a32 32 0 0 0 3.712-63.808l-3.712-0.192H436.032a32 32 0 0 0-3.744 63.776l3.744 0.224h469.344z m0 597.312a32 32 0 0 0 3.712-63.776l-3.712-0.224H436.032a32 32 0 0 0-3.744 63.808l3.744 0.192h469.344z"  horiz-adv-x="1024" />
      
      <glyph glyph-name="gengduo-3" unicode="&#59684;" d="M384 800H170.656A74.656 74.656 0 0 1 96 725.344V512a74.656 74.656 0 0 1 74.656-74.656H384A74.656 74.656 0 0 1 458.656 512V725.344A74.656 74.656 0 0 1 384 800zM170.656 736H384c5.888 0 10.656-4.8 10.656-10.656V512c0-5.888-4.768-10.656-10.656-10.656H170.656A10.656 10.656 0 0 0 160 512V725.344C160 731.2 164.8 736 170.656 736zM384 330.656H170.656A74.656 74.656 0 0 1 96 256v-213.344A74.656 74.656 0 0 1 170.656-32H384a74.656 74.656 0 0 1 74.656 74.656V256A74.656 74.656 0 0 1 384 330.656z m-213.344-64H384c5.888 0 10.656-4.768 10.656-10.656v-213.344c0-5.888-4.768-10.656-10.656-10.656H170.656A10.656 10.656 0 0 0 160 42.656V256c0 5.888 4.8 10.656 10.656 10.656zM746.656 800a181.344 181.344 0 1 1 0-362.656 181.344 181.344 0 0 1 0 362.656z m0-64a117.344 117.344 0 1 0 0-234.656 117.344 117.344 0 0 0 0 234.656z m106.688-405.344H640A74.656 74.656 0 0 1 565.344 256v-213.344A74.656 74.656 0 0 1 640-32h213.344A74.656 74.656 0 0 1 928 42.656V256a74.656 74.656 0 0 1-74.656 74.656z m-213.344-64h213.344c5.888 0 10.656-4.768 10.656-10.656v-213.344c0-5.888-4.8-10.656-10.656-10.656H640a10.656 10.656 0 0 0-10.656 10.656V256c0 5.888 4.768 10.656 10.656 10.656z"  horiz-adv-x="1024" />
      
      <glyph glyph-name="gengduo-4" unicode="&#59683;" d="M384 800H170.656A74.656 74.656 0 0 1 96 725.344V512a74.656 74.656 0 0 1 74.656-74.656H384A74.656 74.656 0 0 1 458.656 512V725.344A74.656 74.656 0 0 1 384 800z m0-469.344H170.656A74.656 74.656 0 0 1 96 256v-213.344A74.656 74.656 0 0 1 170.656-32H384a74.656 74.656 0 0 1 74.656 74.656V256A74.656 74.656 0 0 1 384 330.656zM746.656 800a181.344 181.344 0 1 1 0-362.656 181.344 181.344 0 0 1 0 362.656z m106.688-469.344H640A74.656 74.656 0 0 1 565.344 256v-213.344A74.656 74.656 0 0 1 640-32h213.344A74.656 74.656 0 0 1 928 42.656V256a74.656 74.656 0 0 1-74.656 74.656z"  horiz-adv-x="1024" />
      
      <glyph glyph-name="gengduo-5" unicode="&#59687;" d="M398.208 800h-227.52a69.92 69.92 0 0 1-69.952-69.92v-227.552c0-38.624 31.296-69.92 69.92-69.92h227.552a69.92 69.92 0 0 1 69.952 69.92v227.52A69.92 69.92 0 0 1 398.208 800z m-227.52-64h227.52c3.296 0 5.952-2.656 5.952-5.92v-227.552a5.92 5.92 0 0 0-5.952-5.92h-227.52a5.92 5.92 0 0 0-5.952 5.92v227.52c0 3.296 2.656 5.952 5.92 5.952z m227.52-391.104h-227.52a69.92 69.92 0 0 1-69.952-69.92v-227.584c0-38.592 31.296-69.92 69.92-69.92h227.552a69.92 69.92 0 0 1 69.952 69.92v227.584a69.92 69.92 0 0 1-69.952 69.92z m-227.52-64h227.52c3.296 0 5.952-2.656 5.952-5.92v-227.584a5.92 5.92 0 0 0-5.952-5.92h-227.52a5.92 5.92 0 0 0-5.952 5.92v227.584c0 3.264 2.656 5.92 5.92 5.92zM853.312 800h-227.552a69.92 69.92 0 0 1-69.952-69.92v-227.552c0-38.624 31.328-69.92 69.952-69.92h227.52a69.92 69.92 0 0 1 69.952 69.92v227.52A69.92 69.92 0 0 1 853.344 800z m-227.552-64h227.52c3.296 0 5.952-2.656 5.952-5.92v-227.552a5.92 5.92 0 0 0-5.92-5.92h-227.552a5.92 5.92 0 0 0-5.952 5.92v227.52c0 3.296 2.656 5.952 5.952 5.952z m265.472-391.104a32 32 0 0 0 3.712-63.776l-3.712-0.224H587.84a32 32 0 0 0-3.712 63.776l3.712 0.224h303.424z m0-151.712a32 32 0 0 0 3.712-63.776l-3.712-0.224h-151.68a32 32 0 0 0-3.776 63.776l3.744 0.224h151.68z m0-151.68a32 32 0 0 0 3.712-63.808l-3.712-0.224H587.84a32 32 0 0 0-3.712 63.808l3.712 0.192h303.424z"  horiz-adv-x="1024" />
      
      <glyph glyph-name="gengduo-6" unicode="&#59681;" d="M398.208 800h-227.52a69.92 69.92 0 0 1-69.952-69.92v-227.552c0-38.624 31.296-69.92 69.92-69.92h227.552a69.92 69.92 0 0 1 69.952 69.92v227.52A69.92 69.92 0 0 1 398.208 800z m0-455.104h-227.52a69.92 69.92 0 0 1-69.952-69.92v-227.584c0-38.592 31.296-69.92 69.92-69.92h227.552a69.92 69.92 0 0 1 69.952 69.92v227.584a69.92 69.92 0 0 1-69.952 69.92zM853.344 800h-227.552a69.92 69.92 0 0 1-69.952-69.92v-227.552c0-38.624 31.328-69.92 69.952-69.92h227.52a69.92 69.92 0 0 1 69.952 69.92v227.52A69.92 69.92 0 0 1 853.344 800z m37.92-455.104a32 32 0 0 0 3.712-63.776l-3.712-0.224H587.84a32 32 0 0 0-3.712 63.776l3.712 0.224h303.424z m0-151.712a32 32 0 0 0 3.712-63.776l-3.712-0.224h-151.68a32 32 0 0 0-3.776 63.776l3.744 0.224h151.68z m0-151.68a32 32 0 0 0 3.712-63.808l-3.712-0.224H587.84a32 32 0 0 0-3.712 63.808l3.712 0.192h303.424z"  horiz-adv-x="1024" />
      
      <glyph glyph-name="gengduo-7" unicode="&#59682;" d="M384 800H170.656A74.656 74.656 0 0 1 96 725.344V512a74.656 74.656 0 0 1 74.656-74.656H384A74.656 74.656 0 0 1 458.656 512V725.344A74.656 74.656 0 0 1 384 800zM170.656 736H384c5.888 0 10.656-4.8 10.656-10.656V512c0-5.888-4.768-10.656-10.656-10.656H170.656A10.656 10.656 0 0 0 160 512V725.344C160 731.2 164.8 736 170.656 736zM384 330.656H170.656A74.656 74.656 0 0 1 96 256v-213.344A74.656 74.656 0 0 1 170.656-32H384a74.656 74.656 0 0 1 74.656 74.656V256A74.656 74.656 0 0 1 384 330.656z m-213.344-64H384c5.888 0 10.656-4.768 10.656-10.656v-213.344c0-5.888-4.768-10.656-10.656-10.656H170.656A10.656 10.656 0 0 0 160 42.656V256c0 5.888 4.8 10.656 10.656 10.656zM853.344 800H640a74.656 74.656 0 0 1-74.656-74.656V512A74.656 74.656 0 0 1 640 437.344h213.344A74.656 74.656 0 0 1 928 512V725.344A74.656 74.656 0 0 1 853.344 800zM640 736h213.344c5.888 0 10.656-4.8 10.656-10.656V512c0-5.888-4.8-10.656-10.656-10.656H640a10.656 10.656 0 0 0-10.656 10.656V725.344c0 5.888 4.768 10.656 10.656 10.656z m213.344-405.344H640A74.656 74.656 0 0 1 565.344 256v-213.344A74.656 74.656 0 0 1 640-32h213.344A74.656 74.656 0 0 1 928 42.656V256a74.656 74.656 0 0 1-74.656 74.656z m-213.344-64h213.344c5.888 0 10.656-4.768 10.656-10.656v-213.344c0-5.888-4.8-10.656-10.656-10.656H640a10.656 10.656 0 0 0-10.656 10.656V256c0 5.888 4.768 10.656 10.656 10.656z"  horiz-adv-x="1024" />
      
      <glyph glyph-name="gengduo-8" unicode="&#59679;" d="M384 800H170.656A74.656 74.656 0 0 1 96 725.344V512a74.656 74.656 0 0 1 74.656-74.656H384A74.656 74.656 0 0 1 458.656 512V725.344A74.656 74.656 0 0 1 384 800z m0-469.344H170.656A74.656 74.656 0 0 1 96 256v-213.344A74.656 74.656 0 0 1 170.656-32H384a74.656 74.656 0 0 1 74.656 74.656V256A74.656 74.656 0 0 1 384 330.656zM853.344 800H640a74.656 74.656 0 0 1-74.656-74.656V512A74.656 74.656 0 0 1 640 437.344h213.344A74.656 74.656 0 0 1 928 512V725.344A74.656 74.656 0 0 1 853.344 800z m0-469.344H640A74.656 74.656 0 0 1 565.344 256v-213.344A74.656 74.656 0 0 1 640-32h213.344A74.656 74.656 0 0 1 928 42.656V256a74.656 74.656 0 0 1-74.656 74.656z"  horiz-adv-x="1024" />
      
      <glyph glyph-name="gengduo-9" unicode="&#59680;" d="M512 800a32 32 0 0 0 31.776-28.256L544 768v-384a32 32 0 0 0-28.256-31.776L512 352H128a32 32 0 0 0-3.744 63.776L128 416h352V768a32 32 0 0 0 32 32z m-128 0a32 32 0 0 0 32-32v-256a32 32 0 0 0-32-32H128a32 32 0 0 0-32 32V768a32 32 0 0 0 32 32z m-32-64H160v-192h192V736z m32-448H128a32 32 0 0 1-32-32v-256a32 32 0 0 1 32-32h256a32 32 0 0 1 32 32v256a32 32 0 0 1-32 32z m-32-64v-192H160v192h192z m544 64h-256a32 32 0 0 1-32-32v-256a32 32 0 0 1 32-32h256a32 32 0 0 1 32 32v256a32 32 0 0 1-32 32z m-32-64v-192h-192v192h192z m32 576h-256a32 32 0 0 1-32-32v-256a32 32 0 0 1 32-32h256a32 32 0 0 1 32 32V768a32 32 0 0 1-32 32z m-32-64v-192h-192V736h192zM512 288a32 32 0 0 0 31.776-28.256L544 256v-256a32 32 0 0 0-63.776-3.744L480 0v256a32 32 0 0 0 32 32z m384 128a32 32 0 0 0 3.744-63.776L896 352h-256a32 32 0 0 0-3.744 63.776L640 416h256z"  horiz-adv-x="1024" />
      
      <glyph glyph-name="gengduo-10" unicode="&#59669;" d="M384 800H128a32 32 0 0 1-32-32v-256a32 32 0 0 1 32-32h256a32 32 0 0 1 32 32V768a32 32 0 0 1-32 32zM384 288H128a32 32 0 0 1-32-32v-256a32 32 0 0 1 32-32h256a32 32 0 0 1 32 32v256a32 32 0 0 1-32 32zM896 288h-256a32 32 0 0 1-32-32v-256a32 32 0 0 1 32-32h256a32 32 0 0 1 32 32v256a32 32 0 0 1-32 32zM896 800h-256a32 32 0 0 1-32-32v-256a32 32 0 0 1 32-32h256a32 32 0 0 1 32 32V768a32 32 0 0 1-32 32zM512 800a32 32 0 0 0 31.776-28.256L544 768v-384a32 32 0 0 0-63.776-3.744L480 384V768a32 32 0 0 0 32 32zM512 288a32 32 0 0 0 31.776-28.256L544 256v-256a32 32 0 0 0-63.776-3.744L480 0v256a32 32 0 0 0 32 32zM512 416a32 32 0 0 0 3.744-63.776L512 352H128a32 32 0 0 0-3.744 63.776L128 416h384zM896 416a32 32 0 0 0 3.744-63.776L896 352h-256a32 32 0 0 0-3.744 63.776L640 416h256z"  horiz-adv-x="1024" />
      
      <glyph glyph-name="shauxin-1" unicode="&#59665;" d="M317.248 805.12a30.72 30.72 0 1 0 25.824-55.744A402.304 402.304 0 0 1 109.44 383.872a402.336 402.336 0 0 1 232.544-365.024 30.72 30.72 0 1 0-25.984-55.68A463.776 463.776 0 0 0 48 383.872 463.744 463.744 0 0 0 317.248 805.12z m351.2-15.904a30.72 30.72 0 0 0 40.864 14.72A463.776 463.776 0 0 0 976 383.84a463.776 463.776 0 0 0-268.64-420.96 30.72 30.72 0 0 0-25.888 55.712 402.336 402.336 0 0 1 233.088 365.28 402.336 402.336 0 0 1-231.392 364.48 30.72 30.72 0 0 0-14.72 40.864z"  horiz-adv-x="1024" />
      
      <glyph glyph-name="shauxin-2" unicode="&#59666;" d="M512 842.656c253.312 0 458.656-205.344 458.656-458.656S765.312-74.656 512-74.656 53.344 130.688 53.344 384a32 32 0 0 0 64 0c0-217.984 176.672-394.656 394.656-394.656S906.656 166.016 906.656 384 729.984 778.656 512 778.656a32 32 0 0 0 0 64z"  horiz-adv-x="1024" />
      
      <glyph glyph-name="shauxin-3" unicode="&#59663;" d="M312.011062 715.650051c4.231327-4.367091 6.675088-10.295475 7.353911-17.536248l0.158392-4.548111-1.380273-150.268676-0.316783-4.389719c-2.330624-17.264719-17.264719-30.841169-35.049869-31.022189-17.717268-0.158392-32.58348 13.123902-34.461556 30.56964l-0.18102 4.253955 0.610941 69.398288-4.570739 1.629174-6.177285-7.806459c-114.992533-149.476717-103.610942-360.024832 29.981328-493.617102 89.604571-89.604571 218.807122-125.582164 343.642582-99.085459 11.177944 3.801406 24.663885-0.226274 31.044816-9.865554 7.014499-6.74297 10.725396-15.522408 10.657513-24.777021-0.09051-9.277241-3.982425-18.192443-10.77065-24.61863-3.190466-3.190466-10.069201-6.901362-16.042839-8.983085-148.843149-32.176187-302.05339 10.023946-409.873031 117.798333-156.01604 157.826234-170.29394 406.388409-34.846222 581.977165l6.65246 8.462654-2.036467 4.163445-52.631372-0.452548-4.389719 0.226274a34.336 34.336 0 0 0-30.275484 34.438929 36 36 0 0 0 31.316345 35.072496l4.231327 0.294156 150.246049 1.357645 4.525483-0.271529c7.53493-1.018234 14.504174-4.502856 19.79899-9.97869zM858.101144 704.291088l7.602812-7.783832c149.476717-156.943764 161.62764-400.07536 30.818542-576.003527l-6.494068-8.485281 2.081722-4.163445 50.753296 0.475176 4.434974-0.18102c17.219464-1.561292 28.5558-13.395431 28.397408-30.750659-0.181019-17.739895-13.802724-32.900264-31.338972-35.095124l-4.231327-0.294157-150.246049-1.357645-4.434974 0.271529c-7.353911 0.927724-14.300528 4.344464-19.957381 10.001319l-2.737918 2.421133a28.064 28.064 0 0 0-7.376538 17.513621l-0.158392 4.548111 1.357645 150.291304 0.316784 4.389719c2.330624 17.264719 17.287347 30.863797 35.095124 31.022188a34.272 34.272 0 0 0 34.416301-30.614895l0.226274-4.208699-0.633567-69.420916 4.570738-1.629174 6.177285 7.806459c114.992533 149.476717 103.63357 360.002204-29.9587 493.639729-84.196619 84.196619-204.099301 121.644994-320.924656 103.11314a32.96 32.96 0 0 0-33.398067 8.326889 33.12 33.12 0 0 0-10.318102 24.347101 34.464 34.464 0 0 0 10.725395 24.573375c7.421793 7.421793 14.36841 10.748023 22.808437 10.815905 137.642578 20.070519 273.633354-20.523067 373.44289-114.856769l8.983084-8.711555z"  horiz-adv-x="1074" />
      
      <glyph glyph-name="shauxin-4" unicode="&#59662;" d="M629.568 816.448c57.824-15.68 111.264-42.56 158.944-79.936a449.408 449.408 0 0 0 85.248-88.032l12.16-16.64V732.16c0 19.04 15.552 34.592 34.592 34.592h3.04c19.04 0 34.592-15.552 34.592-34.56v-180.16c0-19.008-15.552-34.56-34.56-34.56h-180.064a34.688 34.688 0 0 0-34.56 34.56v3.04c0 19.04 15.552 34.592 34.56 34.592h87.52l-7.36 10.56a378.08 378.08 0 0 1-77.536 82.24c-164.576 128.992-403.488 100.16-532.608-64.416-129.088-164.576-100.16-403.488 64.416-532.512 164.608-129.056 403.52-100.16 532.608 64.384l7.68 10.144a377.76 377.76 0 0 1 72.64 208.256l0.128 5.824 0.512-0.032 0.096 6.656A34.24 34.24 0 0 0 960 381.024a445.344 445.344 0 0 0-95.424-273.44 444.928 444.928 0 0 0-135.36-115.456 445.376 445.376 0 0 0-163.392-52.8c-57.792-7.04-115.424-2.88-171.264 12.288a445.344 445.344 0 0 0-158.976 79.936 444.928 444.928 0 0 0-115.424 135.36 445.376 445.376 0 0 0-52.8 163.36c-7.04 57.792-2.88 115.392 12.288 171.264A445.344 445.344 0 0 0 159.584 660.48a444.928 444.928 0 0 0 135.36 115.456 445.344 445.344 0 0 0 163.328 52.8 449.248 449.248 0 0 0 171.296-12.288z"  horiz-adv-x="1024" />
      
      <glyph glyph-name="bianji-1" unicode="&#59667;" d="M469.344 800a32 32 0 0 0 3.712-63.776L469.344 736H170.656a10.656 10.656 0 0 1-10.432-8.512L160 725.344v-682.688c0-5.12 3.648-9.44 8.512-10.432l2.144-0.224h682.688a10.656 10.656 0 0 1 10.432 8.512l0.224 2.144v298.688a32 32 0 0 0 63.776 3.712l0.224-3.712v-298.688c0-39.52-30.72-71.872-69.568-74.496l-5.12-0.16H170.688a74.656 74.656 0 0 0-74.496 69.568L96 42.688V725.312c0 39.52 30.72 71.872 69.568 74.496L170.688 800h298.656z m248.192-9.376a32 32 0 0 0 45.248 0l155.84-155.904a32 32 0 0 0 0-45.248L477.44 148.032a32 32 0 0 0-22.656-9.376H298.656a32 32 0 0 0-32 32v155.328a32 32 0 0 0 9.376 22.592z m22.624-67.872L330.656 312.768v-110.08h110.848L850.72 612.096 740.16 722.752z"  horiz-adv-x="1024" />
      
      <glyph glyph-name="bianji-2" unicode="&#59668;" d="M469.344 800a32 32 0 0 0 3.712-63.776L469.344 736H170.656a10.656 10.656 0 0 1-10.432-8.512L160 725.344v-682.688c0-5.12 3.648-9.44 8.512-10.432l2.144-0.224h682.688a10.656 10.656 0 0 1 10.432 8.512l0.224 2.144v298.688a32 32 0 0 0 63.776 3.712l0.224-3.712v-298.688c0-39.52-30.72-71.872-69.568-74.496l-5.12-0.16H170.688a74.656 74.656 0 0 0-74.496 69.568L96 42.688V725.312c0 39.52 30.72 71.872 69.568 74.496L170.688 800h298.656z m248.192-9.376a32 32 0 0 0 45.248 0l155.84-155.904a32 32 0 0 0 0-45.248L477.44 148.032a32 32 0 0 0-22.656-9.376H298.656a32 32 0 0 0-32 32v155.328a32 32 0 0 0 9.376 22.592z"  horiz-adv-x="1024" />
      
      <glyph glyph-name="bianji-3" unicode="&#59661;" d="M896 37.344a32 32 0 0 0 3.744-63.808l-3.744-0.192H128a32 32 0 0 0-3.744 63.776L128 37.344h768zM632.192 795.936L190.688 353.92a32 32 0 0 1-9.344-22.624V176a32 32 0 0 1 32-32h156.096a32 32 0 0 1 22.624 9.376L833.312 594.816a32 32 0 0 1 0 45.248l-155.84 155.904a32 32 0 0 1-45.28 0z m22.624-67.84l110.592-110.656L356.16 208H245.312V318.08L654.816 728.096z"  horiz-adv-x="1024" />
      
      <glyph glyph-name="bianji-4" unicode="&#59664;" d="M896 37.344a32 32 0 0 0 3.744-63.808l-3.744-0.192H128a32 32 0 0 0-3.744 63.776L128 37.344h768zM632.192 795.936L190.688 353.92a32 32 0 0 1-9.344-22.624V176a32 32 0 0 1 32-32h156.096a32 32 0 0 1 22.624 9.376L833.312 594.816a32 32 0 0 1 0 45.248l-155.84 155.904a32 32 0 0 1-45.28 0z"  horiz-adv-x="1024" />
      
      </font>
</defs>
</svg>
